<?xml version="1.0" encoding="utf-8"?>
<!-- Generator: Adobe Illustrator 24.1.0, SVG Export Plug-In . SVG Version: 6.00 Build 0)  -->
<svg version="1.1" id="Layer_1" xmlns="http://www.w3.org/2000/svg" xmlns:xlink="http://www.w3.org/1999/xlink" x="0px" y="0px"
	 viewBox="0 0 440 400" style="enable-background:new 0 0 440 400;" xml:space="preserve">
<style type="text/css">
	.st0{fill:#6266EA;}
	.st1{opacity:0.7;fill:#FFFFFF;enable-background:new    ;}
	.st2{fill:#FFFFFF;}
	.st3{fill:#FFFFFF;stroke:#263238;stroke-linecap:round;stroke-linejoin:round;}
	.st4{fill:#6266EA;stroke:#263238;stroke-linecap:round;stroke-linejoin:round;}
	.st5{fill:#263238;stroke:#263238;stroke-linecap:round;stroke-linejoin:round;}
	.st6{fill:none;stroke:#FFFFFF;stroke-width:0.5;stroke-linecap:round;stroke-linejoin:round;}
	.st7{fill:none;stroke:#263238;stroke-linecap:round;stroke-linejoin:round;}
	.st8{fill:#263238;}
	.st9{fill:#818284;}
	.st10{fill:#F7E583;}
	.st11{fill:#F1AC7A;}
	.st12{clip-path:url(#SVGID_2_);}
	.st13{fill:#334244;}
	.st14{opacity:0.5;}
	.st15{fill:#5C8D7C;}
	.st16{fill:#223858;}
	.st17{fill:#171633;}
	.st18{fill:#5778A0;}
	.st19{fill:#161532;}
	.st20{fill:#97AB71;}
	.st21{fill:#5A7569;}
	.st22{fill:#AEAF5F;}
	.st23{fill:#7E9D69;}
	.st24{clip-path:url(#SVGID_4_);}
	.st25{fill:#BE94B1;}
	.st26{fill:url(#SVGID_5_);}
	.st27{opacity:0.3;fill:#2D3887;enable-background:new    ;}
	.st28{fill:url(#SVGID_6_);}
	.st29{fill:url(#SVGID_7_);}
	.st30{opacity:0.28;fill:#303030;enable-background:new    ;}
	.st31{fill:#F4A947;}
	.st32{clip-path:url(#SVGID_9_);}
	.st33{fill:#8E4209;}
	.st34{fill:#C45882;}
	.st35{fill:#E94F1C;}
	.st36{clip-path:url(#SVGID_12_);}
	.st37{fill:#E87252;}
	.st38{clip-path:url(#SVGID_14_);}
	.st39{fill:#844084;}
	.st40{fill:#BABABA;}
	.st41{clip-path:url(#SVGID_16_);}
	.st42{fill:#60298F;}
	.st43{fill:#BCAA95;}
	.st44{fill:#D8D1F1;}
	.st45{clip-path:url(#SVGID_18_);}
	.st46{opacity:0.39;fill:#A09D9A;enable-background:new    ;}
	.st47{fill:#F39204;}
	.st48{fill:#FAEA9F;}
	.st49{fill:#8C8A91;}
	.st50{fill:#636163;}
	.st51{fill:#FEFEFE;}
	.st52{opacity:0.3;fill:#FAEA9F;enable-background:new    ;}
	.st53{fill:#B7B6B7;}
	.st54{fill:#39B54A;}
	.st55{fill:#2CAB61;}
	.st56{fill:#259954;}
	.st57{fill:#ECCC2D;}
	.st58{fill:#C02B2E;}
	.st59{fill:#F9F4F4;}
	.st60{fill:#BF7328;}
	.st61{fill:#007B74;}
	.st62{fill:#D6CBAD;}
	.st63{fill:#42292F;}
	.st64{fill:#2F343B;}
	.st65{opacity:0.9;fill:#588DBB;enable-background:new    ;}
	.st66{fill:#E66A6B;}
	.st67{fill:#FDFCF2;}
	.st68{fill:#91A0B8;}
	.st69{fill:#E9EFD2;}
	.st70{fill:#EE9D87;}
	.st71{fill:#D0698D;}
	.st72{fill:#C3B7CE;}
	.st73{fill:#FFAB61;}
	.st74{fill:#020202;}
	.st75{fill:#04040C;}
	.st76{fill:#96580E;}
	.st77{fill:#989899;}
	.st78{fill:#F8F7F9;}
	.st79{fill:#996622;}
	.st80{fill:#ADA192;}
	.st81{fill:#494956;}
	.st82{fill:#0E2244;}
	.st83{fill:#C7C7CC;}
	.st84{fill:#020107;}
	.st85{fill:#FBFAFC;}
	.st86{fill:#F9F9F9;}
	.st87{fill:#E2E3E5;}
	.st88{fill:#E8E8E8;}
	.st89{fill:#C9EAF2;}
	.st90{fill:#C0C0C0;}
	.st91{fill:#BEBEBE;}
	.st92{fill:#BEC0BD;}
	.st93{fill:#989A96;}
	.st94{fill:#E6E6E6;}
	.st95{fill:url(#SVGID_19_);}
	.st96{fill:url(#SVGID_20_);}
</style>
<path class="st0" d="M407.2,336.6c2.9-10.7,12.4-46.5,18.9-82.8c7.7-43.4,14.4-103.1-16.4-128.1s-71.3,4.8-92.5-4.8
	s-22.1-57.8-79-72.2s-88.6,35.6-113.7,62.6s-53,8.7-89.6,37.6c-36.2,28.6-5.5,158,21.3,187.8h351V336.6z"/>
<path class="st1" d="M407.2,336.6c2.9-10.7,12.4-46.5,18.9-82.8c7.7-43.4,14.4-103.1-16.4-128.1s-71.3,4.8-92.5-4.8
	s-22.1-57.8-79-72.2s-88.6,35.6-113.7,62.6s-53,8.7-89.6,37.6c-36.2,28.6-5.5,158,21.3,187.8h351V336.6z"/>
<path class="st2" d="M-30-45"/>
<path class="st2" d="M-30-45"/>
<g>
	<path class="st2" d="M-30-45"/>
	<path class="st3" d="M393.1,201c0,0-45.4-1.7-49.2-1.7s-4.7,1.7-4.7,1.7l-6.5,45.7c0,0-20.1-5.8-24.1-5s2,29.4,2,29.4h22.8l0.4-1.7
		h51.5l13.7-65.1C398.1,201.3,393.1,201,393.1,201L393.1,201z"/>
	<path class="st3" d="M375.9,229.6c0,0,4.6,30-0.7,33.5c-0.8,0.5-5.3,3.1-9.4,2.7c-3.3-0.3-26.9,0-26.9,0s-3.3-6.2-3.9-10.8
		s4.5-24.3,4.5-24.3L375.9,229.6z"/>
	<path class="st4" d="M337.2,245.6c0,0-34.2,3.5-35.8,4.5s-9,7.4-7.7,11.6s-1.9,4.5,1,5.2s44.5,0.6,44.5,0.6"/>
	<path class="st3" d="M387.3,271.1h-81.2V265h81.2V271.1z"/>
	<path class="st4" d="M368.1,246.9h-48.9c0,0-2.6,2.9-2.9,9s0.3,7.4,4.8,9s44.6,0.8,44.6,0.8"/>
	<path class="st3" d="M329.6,324.5l-5.1-12.1l-8.4,1.6l6.4,10.8l-3.7,7.4l-8,5.2c0,0-0.9,0.9,3.1,0.6s12.3,0,12.3,0l5.2-6.1
		C331.4,331.9,333.3,328.8,329.6,324.5z"/>
	<path class="st5" d="M331.8,329.8l0.2,7.9h-1.2l-1.7-4L331.8,329.8L331.8,329.8z"/>
	<path class="st5" d="M326.2,338.1l5.2-6.1c0,0,1.4-2.3-0.5-5.6c-3.7,6.4-8.7,8.3-8.7,8.3l-5.2-1.2l-6.3,4.1c0,0-0.9,0.9,3.1,0.6
		S326.2,338.1,326.2,338.1L326.2,338.1z"/>
	<path class="st4" d="M309.5,262.7l17.1,51.9l-12.2,2.2l-24-54c0,0-1.9-8.1,3.2-10.6s20.3-3.9,20.3-3.9"/>
	<path class="st5" d="M364.5,271c0,0-5.9-28.7-2-29.4s24.1,5,24.1,5l6.5-45.6c0,0,6.8-1.1,7.6,5c0.7,6.1-13.4,65.1-13.4,65.1h-22.8
		V271z"/>
	<path class="st5" d="M-30-45"/>
	<path class="st3" d="M346.6,176.3L319.1,205l-26.2-21.2l-3.6,2.6l28.9,32.7l25-13.5L346.6,176.3L346.6,176.3z M387.7,183.6
		l14.4,44.2l-12.4,0.4l-12.4-20.8C377.3,207.4,384.2,186.5,387.7,183.6L387.7,183.6z"/>
	<path class="st3" d="M375.7,158c0,0-1.3,4.5-1.9,7.5s-1.8,9-1.7,11.2s-9.4,11.8-10.5,10.4s-2.4-9.7-2.4-9.7l1.2-13.4
		C360.3,164,372.7,150.3,375.7,158L375.7,158z"/>
	<path class="st3" d="M-30-45"/>
	<circle class="st5" cx="381.5" cy="163.7" r="7.6"/>
	<path class="st5" d="M355.8,150.6c0,0,3.1-2.6,8.6,2.6s3.4,12.9,7.1,14.5s10.5-6.3,11.3-10.3s-1.6-12.1-9-13.7
		S357.5,143.2,355.8,150.6L355.8,150.6z"/>
	<path class="st5" d="M-30-45"/>
	<path class="st5" d="M-30-45"/>
	<path class="st3" d="M367.4,164.8c0,0,5.3-6.9,6.5-1.8s-3,6.4-5,5.8s-1.7-1.7-1.7-1.7 M355.6,223.9c0,0-10.1,1.4-11.8,1.4
		s-5.9,5.3-5.9,5.3h18.5L355.6,223.9z"/>
	<path class="st5" d="M340,329.8l0.2,7.9H339l-1.7-4L340,329.8L340,329.8z"/>
	<path class="st3" d="M337.7,324.5l-1.6-11.5l-8.4,0.5l2.9,11.4l-3.7,7.4l-8,5.2c0,0-0.9,0.9,3.1,0.6s12.3,0,12.3,0l5.2-6.1
		C339.5,332,341.4,328.8,337.7,324.5L337.7,324.5z"/>
	<path class="st5" d="M334.3,338.1l5.2-6.1c0,0,1.4-2.3-0.5-5.6c-3.7,6.4-8.7,8.3-8.7,8.3l-5.1-1.2l-6.3,4.1c0,0-0.9,0.9,3.1,0.6
		S334.3,338.1,334.3,338.1z"/>
	<path class="st4" d="M333.9,253.8l3.6,61.3l-11.4,0.3L315,259.7c0,0,0.2-10.6,3.6-11.8S331,248,331,248"/>
</g>
<g>
	<path class="st3" d="M284.2,121.8l14.1,39.6c0,0-1.9,8.9-7.5,8.6s-7.1-8.2-8.6-9.3s-3.7-9.7-3.7-9.7L284.2,121.8z"/>
	<path class="st3" d="M247.7,113.9l-22.9,8.3l8.8,63.6H275l9.2-64l-24.8-7.8L247.7,113.9z"/>
	<path class="st4" d="M249.9,124.8l3.3,5l-2.9,42.3l4.2,11l4.3-10.7l-3.7-42l3-7.2l-4.1-5.4L249.9,124.8z"/>
	<path class="st3" d="M254.5,122.7l-5.9,4.4l-3.9-11.6l2.7-5.9l12.1-0.3l3,2.6l-0.6,14.7L254.5,122.7L254.5,122.7z"/>
	<path class="st3" d="M260.7,106.8l-0.9,7.4l-6.6,8.5l-5-8.7v-13.9C248.2,100.1,256.9,102.3,260.7,106.8L260.7,106.8z"/>
	<path class="st3" d="M-30-45"/>
	<path class="st3" d="M260.6,93.4l0.9,7l-3.3-0.1"/>
	<path class="st3" d="M-30-45"/>
	<path class="st3" d="M-30-45"/>
	<path class="st6" d="M255.8,81.1c0,0,2.1,3.1-0.6,3.8s-8-1.7-10.4-0.8 M251.1,87.9c0,0-4.3-0.5-6,1.3 M261.4,103.7
		c0,0-3.1,1.6-4.7-0.3"/>
	<path class="st3" d="M247.3,96.7c0,0-3.1-3.4-3.1,0.3s0.9,3.7,2.8,5s2.5-0.3,2.5-0.3"/>
	<path class="st5" d="M288.6,327.2h0.1l-0.3-1.4l-13.5-140.1h-41.4l-13.6,141.4h0.1l8.8,0.8c0,0,9.7-32.7,9.7-35.1s2.8-25,2.8-25
		l13.8-48.5l12.2,48.5c0,0,2.8,22.6,2.8,25s9.8,35.2,9.8,35.2l8.3-0.7L288.6,327.2L288.6,327.2z"/>
	<path class="st6" d="M271.8,194l-9.2,13.1 M266.9,197l-5.6,9.2 M240.6,196.3l8.2,8.9 M240,199.6l11.8,11.8 M236,187.1h36.5"/>
	<path class="st5" d="M220.1,327.2c0,0-5.3,4.1-8.3,5.3s-8.7,4.2-8.7,4.2s0,1.9,4.9,1.9h19.3l-0.3-11.4H220.1z"/>
	<path class="st5" d="M-30-45"/>
	<path class="st5" d="M287.8,327.2c0,0,5.3,4.1,8.3,5.3s8.7,4.2,8.7,4.2s0,1.9-4.9,1.9h-19.3l0.4-11.4H287.8z"/>
	<path class="st5" d="M-30-45"/>
	<path class="st5" d="M-30-45"/>
	<path class="st3" d="M220.3,154.6l52.6-5.2l0.4,4.5l-45.5,13.8c0,0-8.2,1.9-14.6,0.7s-3.4-7.5-1.9-11.2"/>
	<path class="st3" d="M272.9,149.4L283,149l3,6l-12.7-1.1L272.9,149.4L272.9,149.4z"/>
</g>
<g>
	<path class="st3" d="M-30-45"/>
	<path class="st4" d="M103.1,231.5H409v8.8H103.1V231.5z"/>
	<path class="st5" d="M103.1,231.5H409v3H103.1V231.5z"/>
	<path class="st5" d="M332.4,231.5H409v8.8h-76.5v-8.8H332.4z"/>
	<path class="st4" d="M100.4,228.6h311.3v3.4H100.4V228.6z"/>
	<path class="st5" d="M335.6,228.6h76.1v3.4h-76.1V228.6z"/>
	<path class="st5" d="M-30-45"/>
	<path class="st5" d="M-30-45"/>
	<path class="st3" d="M149.3,226.5h62.8v2h-62.8V226.5z"/>
	<path class="st3" d="M181.6,226.5H212v2h-30.4V226.5z M221.2,212.2h11.1v16.4h-11.1V212.2z"/>
	<path class="st3" d="M339.1,228.6h-62.8v-2h62.8V228.6z"/>
	<path class="st3" d="M-30-45"/>
</g>
<g>
	<path class="st3" d="M97.4,133.6l3.1,30.4l14,40.5l-4.8,2.7l-16.4-37.1L85,138.3c0,0-0.7-9.6,2.7-11S96,127.4,97.4,133.6z
		 M114.5,204.6c0,0,3.1,6.5,3.4,8.2s0.7,5.2-0.6,6.8c-1.6,1.9-3.1,0.4-3.1,0.4s-4.1-1-4.1-4.5s-0.3-8.2-0.3-8.2L114.5,204.6z"/>
	<path class="st7" d="M111.1,214.8l5.8,1.5"/>
	<path class="st7" d="M-30-45"/>
	<path class="st5" d="M81,97c0,0-3.5-3.8-11.6-1.4s-10,15.4-9.8,21.9s6.5,13.8,4.6,17.1s-8.9,10.8-8.4,19s7.3,14.6,17.1,11.6
		s8.1-14.9,6.2-19.3s2.2-6.2,3.5-15.7s-7.3-17.3-7.3-24.1s7-5.7,7-5.7L81,97z"/>
	<path class="st5" d="M-30-45"/>
	<path class="st6" d="M81,99c0,0-9.4,1.7-11.6,8.6s10.5,17,11.2,24.5c0.7,7.5-8.4,11.8-11.6,17.6c-2.2,4.1-2,8.5,0.4,10.8"/>
	<path class="st6" d="M-30-45"/>
	<path class="st6" d="M-30-45"/>
	<path class="st6" d="M-30-45"/>
	<path class="st6" d="M-30-45"/>
	<path class="st3" d="M86,122.9c0,0-1.8,1.5-2.9,11.4s6.1,40.8,6.1,40.8s-12.5,20.5-15.5,30.8S69,254.4,69,254.4s6.1,2.3,18.7,3.2
		s19.2-2.3,19.2-2.3s0.6-54.6,0.6-63s0.6-27.5,1.5-29.9s3.5-8.5,3.5-10.8S95,124.4,95,124.4L86,122.9z"/>
	<path class="st5" d="M73.7,205.9c2.3-8,11.8-29.3,15.2-32.9c5.2,1.7,14.6,3.4,18.8,2.2c-0.1,3-0.2,14.2-0.2,17.1
		c0,8.5-0.6,63-0.6,63s-6.7,3.2-19.2,2.3S69,254.4,69,254.4S70.8,216.1,73.7,205.9L73.7,205.9z M92.5,88.5c0,0,3.1-6.8,9.3-6.8
		c6.2,0,8.9,5.5,7.6,10.3s4.1,3.4,4.8,6.5s-4.5,5.1-7.2,5.1S92.5,88.5,92.5,88.5L92.5,88.5z"/>
	<path class="st6" d="M101.5,87.8c1.8-1,4-1.7,5-0.2c1.9,3-4.1,5.4-2.1,8.6s6.6,2.4,6.4,3.4s-3.2,1.7-3.2,1.7 M98.4,90
		c0,0,0.6-0.5,1.5-1.1"/>
</g>
<g>
	<path class="st6" d="M-30-45"/>
	<path class="st5" d="M160.9,161.9c0,0-2.5,2.3-4.4,2.5s-7.9-1.2-8.4-1.9s-4.7-9.4-4.5-13.6s0.3-10.4,4.8-12.5s11.7-1.4,15.4-3.7
		s9.7-4.2,12.8-0.2s0.8,9.7-1.7,12s-5.6,3-5.3,4s2.2,2.2,1.1,3.7s-5,3-5,3.6s0.9,2.8-0.1,3.1s-2.2-2.2-3.3-2.2
		S158.9,159.9,160.9,161.9z"/>
	<path class="st5" d="M-30-45"/>
	<path class="st5" d="M-30-45"/>
	<path class="st7" d="M163,156.9l14.1-3.5 M173.5,153.2l3.2,0.1c0,0,1.1,3.6-2.2,4.1"/>
	<path class="st5" d="M159.2,326.1c0,0,13,8.2,15.3,8.2s3.4,2.1,2.3,2.3s-8.2,0.5-13,0.7s-8-0.2-10.7-0.2s-5.9,0.2-7.3-0.5
		s0.9-8.5,0.9-9.8S157.6,325.1,159.2,326.1L159.2,326.1z"/>
	<path class="st3" d="M176,334.6c-5.1,1.7-13.2,0.6-18.2,0.1c-3.9-0.4-10-0.4-12.5-0.5c-0.1,1.2,0,2.1,0.4,2.3
		c1.4,0.7,4.6,0.5,7.3,0.5s5.9,0.5,10.7,0.2s11.9-0.5,13-0.7C177.7,336.4,177.2,335.2,176,334.6L176,334.6z"/>
	<path class="st3" d="M-30-45"/>
	<path class="st5" d="M200.8,324.3c0,0,8,6.6,11.6,7.8s7.5,2.3,7.5,3.4s-8.7,2.3-15.3,1.6s-16.7-3.6-18.9-3.6s-1.8-5.9-1.8-6.9
		S195.1,318.4,200.8,324.3L200.8,324.3z"/>
	<path class="st5" d="M-30-45"/>
	<path class="st5" d="M-30-45"/>
	<path class="st5" d="M-30-45"/>
	<path class="st5" d="M-30-45"/>
	<path class="st3" d="M181.8,229c0,0-1.7,1.9,0,4.8c1.2,2,3.3,3.6,7.3,2.9c3.8-0.7,9.4-10,9.4-16.6s-4.8-7-6.6-5.7
		S181.8,229,181.8,229z"/>
	<path class="st3" d="M-30-45"/>
	<path class="st7" d="M169.3,210.8l-5.9-8.7 M168.3,209.5l-10.4-5.1"/>
	<path class="st3" d="M224.4,192.5c0,0-1.3,1.3-3.2,3.5 M224.2,195.1c0,0-1.6,3.1-2.5,4.6"/>
</g>
<g>
	<path class="st3" d="M-30-45"/>
	<path class="st3" d="M-30-45"/>
	<path class="st3" d="M-30-45"/>
</g>
<path class="st8" d="M21.2,337.6H428v5H21.2V337.6z"/>
<g>
	<g>
		<rect x="1.7" y="-0.5" class="st9" width="441.6" height="398.1"/>
		<g>
			<g>
				<rect x="76.6" y="37.8" class="st10" width="292" height="212"/>
				<path class="st11" d="M368.6,58.4c-2.3,0.9-4.5,2.8-6.7,6.2c-13.8,21.5-47.5,70.4-75.2,41.6c-27.7-28.8-48,2.7-64.1,27.1
					c-16.1,24.5-29.9,23.8-76.7-1.7c-25.4-13.8-51.1-9.1-69.3-1.8v120h292V58.4z"/>
				<g>
					<g>
						<defs>
							<rect id="SVGID_1_" x="76.6" y="37.8" width="292" height="212"/>
						</defs>
						<clipPath id="SVGID_2_">
							<use xlink:href="#SVGID_1_"  style="overflow:visible;"/>
						</clipPath>
						<g class="st12">
							<g>
								<path class="st13" d="M99,285.3c-3.6-25.5-1.4-72.6,9.4-94.2c13.8-27.5,15.9,23.6,17.4,37.3c0.7,5.9-0.7,29.4,6.5,28.5
									c5.8-2,8-36.3,8.7-43.2c5.8-36.3,23.9-30.4,26.1,4.9c0.7,9.8-4.3,37.3,3.6,44.2c12.3,10.8,12.3-36.3,17.4-45.1
									c21-33.4,22.4,53,23.2,67.7c-36.9,1-72.4,1-109.3,1"/>
							</g>
							<g class="st14">
								<path class="st13" d="M231.5,254.8c-0.8-0.2-1.6-0.7-2.6-1.5c-8.2-7.1-3-35.4-3.7-45.5c-2.2-36.4-20.9-42.4-26.8-5.1
									c-0.7,7.1-3,42.4-8.9,44.4c-7.5,1-6-23.2-6.7-29.3c-1.5-14.1-3.7-66.7-17.9-38.4c-11.2,22.2-13.4,70.7-9.7,97l3,1
									c24.8,0,49,0,73.4-0.3v-22.3H231.5z"/>
							</g>
							<g>
								<path class="st15" d="M250.1,284.6c1.3-4.9,1.1-17.5,1.1-23.7c0.6-15.8-4.2-53.4-25-37.7c-11.3,8.2-9.5,21.9-16.7,32.2
									c-8.3,11-9.5-0.7-12.5-7.5c-9.5-24.7-11.9,22.6-24.4,22.6c-9.5,0-5.4-13-11.3-13.7c-4.5-0.6-10.8,14.1-13.3,21.9
									L250.1,284.6z"/>
							</g>
							<g>
								<g>
									<path class="st16" d="M125.3,205c-4-3-10.6-2.4-7.9-12.6c1.3-5.4,10.6-10.2,4.4-17.3c-4-4.2-8.8,3-10.1-5.4
										c-0.9-6,4.9-9,2.2-15.5c-1.8-6-11-10.8-14.6-8.4l-1.3,0.6c-4.4-0.6-8.8,0-11,5.4c-2.6,7.8,3.5,13.2,0.4,20.3
										c-3.1,7.2-10.6,5.4-11,14.3c-0.9,10.2,6.2,7.2,4,16.1c-1.8,7.2-8.4,9.6-7.1,19.7c0.9,7.2,5.3,11.4,10.6,12
										c2.6,0.6,4.9-2.4,7.5-1.2s3.5,5.4,6.2,7.2c6.2,4.8,14.6,3,20.7,0C128.8,234.9,137.2,215.1,125.3,205z"/>
								</g>
								<rect x="100.2" y="160.1" class="st17" width="1.7" height="146.5"/>
								<path class="st17" d="M89.7,183.1c1.3,6.6,6.3,10.9,10.6,13.7c0.8,0.6,1.6-1.2,0.7-1.7c-3.9-2.6-8.7-6.5-10-12.6
									C90.9,181.3,89.4,181.8,89.7,183.1L89.7,183.1z"/>
								<path class="st17" d="M101.1,208.1c4.2,0.9,8.6-3.2,12.3-5.3c0.9-0.5,0.1-2.2-0.7-1.7c-1.9,1.1-3.8,2.4-5.7,3.4
									c-1.6,0.9-3.7,2-5.5,1.7C100.6,206,100.2,207.9,101.1,208.1L101.1,208.1z"/>
								<path class="st17" d="M101.2,226.5c-3.3-0.9-6.1-3.7-8.5-6.9c-0.7-0.9-1.7,0.5-1,1.4c2.5,3.4,5.6,6.4,9.1,7.4
									C101.7,228.7,102.1,226.8,101.2,226.5L101.2,226.5z"/>
								<path class="st17" d="M101,185c3,0.3,7-1.2,8.3-5.3c0.4-1.2-0.9-2.2-1.3-1c-1.1,3.4-4.5,4.5-7,4.3
									C100,182.9,100,184.9,101,185L101,185z"/>
								<path class="st17" d="M101.4,175.2c-1.5-1.3-2.7-3-4-4.6c-0.7-0.9-1.7,0.5-1,1.4c1.3,1.8,2.7,3.6,4.3,4.9
									C101.4,177.6,102.2,175.8,101.4,175.2L101.4,175.2z"/>
								<path class="st17" d="M101.5,234.8c5-1.7,10.9-3.9,14.4-9.4c0.6-1-0.4-2.4-1-1.4c-3.4,5.2-9,7.3-13.8,8.9
									C100.2,233.2,100.6,235.1,101.5,234.8L101.5,234.8z"/>
							</g>
							<g>
								<g>
									<path class="st18" d="M123.1,162.3c-3.3-0.7-8.7-0.7-10.9,3.7c-4.3,8.1,4.3,13.2,3.8,20.6c-0.5,9.6-13.6,11-13,20.6
										c0.5,8.1,8.7,5.2,4.9,19.1c-1.6,6.6-8.7,14.7-6.5,22.8c3.8,12.5,11.4,4.4,16.8,4.4c7.6,0,25,11.8,32-2.2
										c6-12.5-9.8-17.7-11.9-26.5c-1.1-6.6,2.7-10.3,2.2-16.2c-1.1-6.6-6.5-6.6-7.1-12.5c-0.5-5.9,3.8-8.1,4.9-13.2
										c1.1-7.4-1.6-7.4-3.8-12.5c-1.6-5.9,3.3-6.6-3.8-9.6c-2.2-0.7-5.4,0.7-6.5,1.5"/>
								</g>
								<rect x="124.1" y="171.9" class="st19" width="1.5" height="122.9"/>
								<path class="st19" d="M113.1,226.2c2.5,5.5,7.1,7.7,11.4,9.4c1.1,0.4,1.6-1.9,0.5-2.4c-3.8-1.5-8.1-3.4-10.3-8.3
									C114.1,223.6,112.5,224.9,113.1,226.2L113.1,226.2z"/>
								<path class="st19" d="M125.7,221.4c3.5-1.7,5.9-5.5,6.6-10.4c0.2-1.5-1.5-2.2-1.7-0.7c-0.6,4.1-2.4,7.3-5.3,8.7
									C124.2,219.6,124.6,221.9,125.7,221.4L125.7,221.4z"/>
								<path class="st19" d="M124.8,204.5c-3.5-0.1-6-3-7.9-6.8c-0.7-1.3-2.2-0.1-1.6,1.2c2.3,4.5,5.3,7.8,9.5,8
									C125.9,207,125.9,204.6,124.8,204.5L124.8,204.5z"/>
								<path class="st19" d="M125.9,184.9c3-0.1,5.5-1.9,6.8-5.8c0.5-1.4-1.1-2.7-1.6-1.2c-1,3.1-2.8,4.5-5.2,4.5
									C124.7,182.5,124.7,184.9,125.9,184.9L125.9,184.9z"/>
								<path class="st19" d="M125.5,247.9c4.4-0.1,8.6-2.5,11.5-7c0.8-1.2-0.5-2.9-1.3-1.7c-2.6,4-6.3,6.2-10.2,6.3
									C124.3,245.5,124.3,248,125.5,247.9L125.5,247.9z"/>
							</g>
							<g>
								<path class="st2" d="M135.3,103.1c0-3.9-4.1-7.1-9.3-7.1c-1.2,0-2.3,0.2-3.4,0.5c-2.4-2.5-6.2-4.1-10.5-4.1
									c-4.7,0-8.9,2-11.3,5c-4.7,0.3-8.5,2.7-8.5,5.7h6.4l0,0h26.7l0,0H135.3z"/>
								<path class="st2" d="M138,74.4c0-5.9-4.2-10.6-9.3-10.6c-1.2,0-2.3,0.3-3.4,0.7c-2.4-3.7-6.2-6.1-10.5-6.1
									c-4.8,0-8.9,3-11.3,7.5c-4.8,0.4-8.5,4-8.5,8.5h6.4l0,0h26.8l0,0H138z"/>
								<path class="st2" d="M270.3,82.4c0-12.2-6.4-22.1-14.2-22.1c-1.8,0-3.6,0.5-5.2,1.5c-3.7-7.7-9.5-12.7-16.1-12.7
									c-7.3,0-13.7,6.2-17.3,15.5c-7.3,0.8-13,8.4-13,17.7h9.8l0,0h40.9l0,0L270.3,82.4L270.3,82.4z"/>
							</g>
							<path class="st20" d="M248.6,314c0,0,0.6-16.6-8.7-21.7c0,0,9.9,2,12.2,19.7c0,0-4.1-15.8,5.2-25.3c0,0-6.1,11.1-2.6,25.3
								c0,0,0.3-15.4,7.6-18.2c0,0-6.4,6.3-5.8,19.7L248.6,314z"/>
							<path class="st18" d="M208.7,169.1c-3,1.9-6.2,1-6.2,1s1.7-3.8,4.7-5.7s6.2-1,6.2-1S211.7,167.3,208.7,169.1z"/>
							<path class="st18" d="M185.5,157.3c-3,1.9-6.2,1-6.2,1s1.7-3.8,4.7-5.7s6.2-1,6.2-1S188.5,155.4,185.5,157.3z"/>
							<path class="st18" d="M192.6,121.8c2.2,3.4,2.6,7.8,2.6,7.8s-3.2-1-5.4-4.4s-2.6-7.8-2.6-7.8S190.4,118.5,192.6,121.8z"/>
							<path class="st20" d="M233.6,311.9c-3,1.9-6.2,1-6.2,1s1.7-3.8,4.7-5.7c3-1.9,6.2-1,6.2-1S236.7,310,233.6,311.9z"/>
							<path class="st21" d="M80.8,273.7c-3.1-1.5-5-5.1-5-5.1s3.2-1.2,6.3,0.3c3.1,1.5,5,5.1,5,5.1S83.9,275.2,80.8,273.7z"/>
							<path class="st21" d="M259.3,244.5c-3.1-1.5-5-5.1-5-5.1s3.2-1.2,6.3,0.3c3.1,1.5,5,5.1,5,5.1S262.4,246,259.3,244.5z"/>
							<path class="st21" d="M250.8,317.6c-3.1-1.5-5-5.1-5-5.1s3.2-1.2,6.3,0.3s5,5.1,5,5.1S253.9,319.1,250.8,317.6z"/>
							<path class="st21" d="M227.9,323.7c-3.1-1.5-5-5.1-5-5.1s3.2-1.2,6.3,0.3s5,5.1,5,5.1S231,325.2,227.9,323.7z"/>
							<path class="st21" d="M223.1,304c-3.3,0.1-6-2.4-6-2.4s2.6-2.7,6-2.8c3.3-0.1,6,2.4,6,2.4S226.4,303.9,223.1,304z"/>
							<path class="st22" d="M193.1,208.2c-3.1-1.5-5-5.1-5-5.1s3.2-1.2,6.3,0.3s5,5.1,5,5.1S196.3,209.7,193.1,208.2z"/>
							<path class="st16" d="M89,248.5c-3.3,0.6-6.2-1.4-6.2-1.4s2.4-3.1,5.7-3.7c3.3-0.6,6.2,1.4,6.2,1.4S92.3,247.8,89,248.5z"/>
							<path class="st22" d="M193.3,285.6c-2.3,1.4-4.8,0.7-4.8,0.7s1.3-2.9,3.7-4.3c2.3-1.4,4.8-0.7,4.8-0.7
								S195.6,284.2,193.3,285.6z"/>
							<path class="st18" d="M121.7,153.6c-2.9,1-5.7-0.4-5.7-0.4s1.9-3.1,4.9-4.1c2.9-1,5.7,0.4,5.7,0.4S124.6,152.6,121.7,153.6z"
								/>
							<path class="st21" d="M93.2,311.1c-2.9,1-5.7-0.4-5.7-0.4s1.9-3.1,4.9-4.1c2.9-1,5.7,0.4,5.7,0.4S96.2,310.1,93.2,311.1z"/>
							<path class="st23" d="M134.3,299.6c-2.2-0.3-3.9-2.3-3.9-2.3s1.9-1.5,4.2-1.1c2.2,0.3,3.9,2.3,3.9,2.3
								S136.5,299.9,134.3,299.6z"/>
							<path class="st18" d="M92.6,137.4c-2.4-2.4-3.4-6.3-3.4-6.3s3,0.1,5.4,2.5s3.4,6.3,3.4,6.3S95,139.8,92.6,137.4z"/>
							<path class="st23" d="M248.3,269.7c-2.7,1.9-5.7,1.3-5.7,1.3s1.4-3.6,4.1-5.5c2.7-1.9,5.7-1.3,5.7-1.3S251,267.8,248.3,269.7
								z"/>
						</g>
					</g>
					<g>
						<defs>
							<rect id="SVGID_3_" x="76.6" y="37.8" width="292" height="212"/>
						</defs>
						<clipPath id="SVGID_4_">
							<use xlink:href="#SVGID_3_"  style="overflow:visible;"/>
						</clipPath>
						<g class="st24">
							<g>
								<path class="st13" d="M276.7,285.3c-3.6-25.5-1.4-72.6,9.4-94.2c13.8-27.5,15.9,23.6,17.4,37.3c0.7,5.9-0.7,29.4,6.5,28.5
									c5.8-2,8-36.3,8.7-43.2c5.8-36.3,23.9-30.4,26.1,4.9c0.7,9.8-4.3,37.3,3.6,44.2c12.3,10.8,12.3-36.3,17.4-45.1
									c21-33.4,22.4,53,23.2,67.7c-36.9,1-72.4,1-109.3,1"/>
							</g>
							<g class="st14">
								<path class="st13" d="M409.2,254.8c-0.8-0.2-1.6-0.7-2.6-1.5c-8.2-7.1-3-35.4-3.7-45.5c-2.2-36.4-20.9-42.4-26.8-5.1
									c-0.7,7.1-3,42.4-8.9,44.4c-7.5,1-6-23.2-6.7-29.3c-1.5-14.1-3.7-66.7-17.9-38.4c-11.2,22.2-13.4,70.7-9.7,97l3,1
									c24.8,0,49,0,73.4-0.3L409.2,254.8L409.2,254.8z"/>
							</g>
							<g>
								<path class="st15" d="M427.8,284.6c1.3-4.9,1.1-17.5,1.1-23.7c0.6-15.8-4.2-53.4-25-37.7c-11.3,8.2-9.5,21.9-16.7,32.2
									c-8.3,11-9.5-0.7-12.5-7.5c-9.5-24.7-11.9,22.6-24.4,22.6c-9.5,0-5.4-13-11.3-13.7c-4.5-0.6-10.8,14.1-13.3,21.9
									L427.8,284.6z"/>
							</g>
							<g>
								<g>
									<path class="st16" d="M302.9,205c-4-3-10.6-2.4-7.9-12.6c1.3-5.4,10.6-10.2,4.4-17.3c-4-4.2-8.8,3-10.1-5.4
										c-0.9-6,4.9-9,2.2-15.5c-1.8-6-11-10.8-14.6-8.4l-1.3,0.6c-4.4-0.6-8.8,0-11,5.4c-2.6,7.8,3.5,13.2,0.4,20.3
										c-3.1,7.2-10.6,5.4-11,14.3c-0.9,10.2,6.2,7.2,4,16.1c-1.8,7.2-8.4,9.6-7.1,19.7c0.9,7.2,5.3,11.4,10.6,12
										c2.6,0.6,4.9-2.4,7.5-1.2s3.5,5.4,6.2,7.2c6.2,4.8,14.6,3,20.7,0C306.5,234.9,314.8,215.1,302.9,205z"/>
								</g>
								<rect x="277.9" y="160.1" class="st17" width="1.7" height="146.5"/>
								<path class="st17" d="M267.4,183.1c1.3,6.6,6.3,10.9,10.6,13.7c0.8,0.6,1.6-1.2,0.7-1.7c-3.9-2.6-8.7-6.5-10-12.6
									C268.5,181.3,267.1,181.8,267.4,183.1L267.4,183.1z"/>
								<path class="st17" d="M278.8,208.1c4.2,0.9,8.6-3.2,12.3-5.3c0.9-0.5,0.1-2.2-0.7-1.7c-1.9,1.1-3.8,2.4-5.7,3.4
									c-1.6,0.9-3.7,2-5.5,1.7C278.2,206,277.8,207.9,278.8,208.1L278.8,208.1z"/>
								<path class="st17" d="M278.9,226.5c-3.3-0.9-6.1-3.7-8.5-6.9c-0.7-0.9-1.7,0.5-1,1.4c2.5,3.4,5.6,6.4,9.1,7.4
									C279.4,228.7,279.8,226.8,278.9,226.5L278.9,226.5z"/>
								<path class="st17" d="M278.7,185c3,0.3,7-1.2,8.3-5.3c0.4-1.2-0.9-2.2-1.3-1c-1.1,3.4-4.5,4.5-7,4.3
									C277.7,182.9,277.7,184.9,278.7,185L278.7,185z"/>
								<path class="st17" d="M279,175.2c-1.5-1.3-2.7-3-4-4.6c-0.7-0.9-1.7,0.5-1,1.4c1.3,1.8,2.7,3.6,4.3,4.9
									C279.1,177.6,279.8,175.8,279,175.2L279,175.2z"/>
								<path class="st17" d="M279.2,234.8c5-1.7,10.9-3.9,14.4-9.4c0.6-1-0.4-2.4-1-1.4c-3.4,5.2-9,7.3-13.8,8.9
									C277.8,233.2,278.2,235.1,279.2,234.8L279.2,234.8z"/>
							</g>
							<g>
								<g>
									<path class="st18" d="M300.8,162.3c-3.3-0.7-8.7-0.7-10.9,3.7c-4.3,8.1,4.3,13.2,3.8,20.6c-0.5,9.6-13.6,11-13,20.6
										c0.5,8.1,8.7,5.2,4.9,19.1c-1.6,6.6-8.7,14.7-6.5,22.8c3.8,12.5,11.4,4.4,16.8,4.4c7.6,0,25,11.8,32-2.2
										c6-12.5-9.8-17.7-11.9-26.5c-1.1-6.6,2.7-10.3,2.2-16.2c-1.1-6.6-6.5-6.6-7.1-12.5c-0.5-5.9,3.8-8.1,4.9-13.2
										c1.1-7.4-1.6-7.4-3.8-12.5c-1.6-5.9,3.3-6.6-3.8-9.6c-2.2-0.7-5.4,0.7-6.5,1.5"/>
								</g>
								<rect x="301.8" y="171.9" class="st19" width="1.5" height="122.9"/>
								<path class="st19" d="M290.8,226.2c2.5,5.5,7.1,7.7,11.4,9.4c1.1,0.4,1.6-1.9,0.5-2.4c-3.8-1.5-8.1-3.4-10.3-8.3
									C291.8,223.6,290.2,224.9,290.8,226.2L290.8,226.2z"/>
								<path class="st19" d="M303.4,221.4c3.5-1.7,5.9-5.5,6.6-10.4c0.2-1.5-1.5-2.2-1.7-0.7c-0.6,4.1-2.4,7.3-5.3,8.7
									C301.8,219.6,302.3,221.9,303.4,221.4L303.4,221.4z"/>
								<path class="st19" d="M302.5,204.5c-3.5-0.1-6-3-7.9-6.8c-0.7-1.3-2.2-0.1-1.6,1.2c2.3,4.5,5.3,7.8,9.5,8
									C303.6,207,303.6,204.6,302.5,204.5L302.5,204.5z"/>
								<path class="st19" d="M303.5,184.9c3-0.1,5.5-1.9,6.8-5.8c0.5-1.4-1.1-2.7-1.6-1.2c-1,3.1-2.8,4.5-5.2,4.5
									C302.4,182.5,302.4,184.9,303.5,184.9L303.5,184.9z"/>
								<path class="st19" d="M303.2,247.9c4.4-0.1,8.6-2.5,11.5-7c0.8-1.2-0.5-2.9-1.3-1.7c-2.6,4-6.3,6.2-10.2,6.3
									C302,245.5,302,248,303.2,247.9L303.2,247.9z"/>
							</g>
							<g>
								<path class="st2" d="M312.9,103.1c0-3.9-4.1-7.1-9.3-7.1c-1.2,0-2.3,0.2-3.4,0.5c-2.4-2.5-6.2-4.1-10.5-4.1
									c-4.7,0-8.9,2-11.3,5c-4.7,0.3-8.4,2.7-8.4,5.7h6.4l0,0h26.7l0,0H312.9z"/>
								<path class="st2" d="M407.4,86.5c0-7.6-6.4-13.7-14.2-13.7c-1.8,0-3.6,0.3-5.2,0.9c-3.7-4.8-9.5-7.8-16.1-7.8
									c-7.3,0-13.7,3.8-17.3,9.6c-7.3,0.5-13,5.2-13,11h9.8l0,0h40.9l0,0H407.4z"/>
							</g>
							<path class="st20" d="M426.2,314c0,0,0.6-16.6-8.7-21.7c0,0,9.9,2,12.2,19.7c0,0-4.1-15.8,5.2-25.3c0,0-6.1,11.1-2.6,25.3
								c0,0,0.3-15.4,7.6-18.2c0,0-6.4,6.3-5.8,19.7L426.2,314z"/>
							<path class="st18" d="M386.3,169.1c-3,1.9-6.2,1-6.2,1s1.7-3.8,4.7-5.7s6.2-1,6.2-1S389.4,167.3,386.3,169.1z"/>
							<path class="st18" d="M363.2,157.3c-3,1.9-6.2,1-6.2,1s1.7-3.8,4.7-5.7s6.2-1,6.2-1S366.2,155.4,363.2,157.3z"/>
							<path class="st18" d="M370.3,121.8c2.2,3.4,2.6,7.8,2.6,7.8s-3.2-1-5.4-4.4c-2.2-3.4-2.6-7.8-2.6-7.8
								S368.1,118.5,370.3,121.8z"/>
							<path class="st20" d="M411.3,311.9c-3,1.9-6.2,1-6.2,1s1.7-3.8,4.7-5.7c3-1.9,6.2-1,6.2-1S414.3,310,411.3,311.9z"/>
							<path class="st21" d="M258.5,273.7c-3.1-1.5-5-5.1-5-5.1s3.2-1.2,6.3,0.3c3.1,1.5,5,5.1,5,5.1S261.6,275.2,258.5,273.7z"/>
							<path class="st21" d="M437,244.5c-3.1-1.5-5-5.1-5-5.1s3.2-1.2,6.3,0.3c3.1,1.5,5,5.1,5,5.1S440.1,246,437,244.5z"/>
							<path class="st21" d="M428.4,317.6c-3.1-1.5-5-5.1-5-5.1s3.2-1.2,6.3,0.3c3.1,1.5,5,5.1,5,5.1S431.6,319.1,428.4,317.6z"/>
							<path class="st21" d="M405.6,323.7c-3.1-1.5-5-5.1-5-5.1s3.2-1.2,6.3,0.3c3.1,1.5,5,5.1,5,5.1S408.7,325.2,405.6,323.7z"/>
							<path class="st21" d="M400.8,304c-3.3,0.1-6-2.4-6-2.4s2.6-2.7,6-2.8c3.3-0.1,6,2.4,6,2.4S404.1,303.9,400.8,304z"/>
							<path class="st22" d="M370.8,208.2c-3.1-1.5-5-5.1-5-5.1s3.2-1.2,6.3,0.3c3.1,1.5,5,5.1,5,5.1S374,209.7,370.8,208.2z"/>
							<path class="st16" d="M266.7,248.5c-3.3,0.6-6.2-1.4-6.2-1.4s2.4-3.1,5.7-3.7c3.3-0.6,6.2,1.4,6.2,1.4S270,247.8,266.7,248.5
								z"/>
							<path class="st22" d="M370.9,285.6c-2.3,1.4-4.8,0.7-4.8,0.7s1.3-2.9,3.7-4.3c2.3-1.4,4.8-0.7,4.8-0.7
								S373.3,284.2,370.9,285.6z"/>
							<path class="st18" d="M299.4,153.6c-2.9,1-5.7-0.4-5.7-0.4s1.9-3.1,4.9-4.1c2.9-1,5.7,0.4,5.7,0.4S302.3,152.6,299.4,153.6z"
								/>
							<path class="st21" d="M270.9,311.1c-2.9,1-5.7-0.4-5.7-0.4s1.9-3.1,4.9-4.1c2.9-1,5.7,0.4,5.7,0.4S273.8,310.1,270.9,311.1z"
								/>
							<path class="st23" d="M312,299.6c-2.2-0.3-3.9-2.3-3.9-2.3s1.9-1.5,4.2-1.1c2.2,0.3,3.9,2.3,3.9,2.3S314.2,299.9,312,299.6z"
								/>
							<path class="st18" d="M270.2,137.4c-2.4-2.4-3.4-6.3-3.4-6.3s3,0.1,5.4,2.5s3.4,6.3,3.4,6.3S272.7,139.8,270.2,137.4z"/>
							<path class="st23" d="M426,269.7c-2.7,1.9-5.7,1.3-5.7,1.3s1.4-3.6,4.1-5.5s5.7-1.3,5.7-1.3S428.7,267.8,426,269.7z"/>
						</g>
					</g>
				</g>
			</g>
			<g>
				<rect x="152.3" y="37.8" class="st25" width="3.1" height="212"/>
				<rect x="221.1" y="37.8" class="st25" width="3.1" height="212"/>
				<rect x="289.9" y="37.8" class="st25" width="3.1" height="212"/>
			</g>
		</g>
		
			<linearGradient id="SVGID_5_" gradientUnits="userSpaceOnUse" x1="233.2" y1="83.3958" x2="233.2" y2="392.7949" gradientTransform="matrix(1 0 0 -1 0 399)">
			<stop  offset="0" style="stop-color:#FFFFFF;stop-opacity:0"/>
			<stop  offset="1" style="stop-color:#F39204"/>
		</linearGradient>
		<polygon class="st26" points="368.3,37.4 437.3,397.6 29.1,397.6 112.7,37.7 		"/>
		<path class="st27" d="M360.3,354.7c0,1.6-0.9,2.8-2.1,2.8h-76.7c-1.1,0-2.1-1.3-2.1-2.8l0,0c0-1.6,0.9-2.8,2.1-2.8h76.7
			C359.3,351.9,360.3,353.2,360.3,354.7L360.3,354.7z"/>
		<path class="st27" d="M371.9,341.6c0,1.8-0.7,3.3-1.5,3.3h-250c-0.8,0-1.5-1.5-1.5-3.3l0,0c0-1.8,0.7-3.3,1.5-3.3h250
			C371.2,338.2,371.9,339.7,371.9,341.6L371.9,341.6z"/>
		<g>
			<radialGradient id="SVGID_6_" cx="106.3229" cy="139.4" r="86.4492" gradientUnits="userSpaceOnUse">
				<stop  offset="0.2538" style="stop-color:#F39200"/>
				<stop  offset="1" style="stop-color:#E94E1B"/>
			</radialGradient>
			<path class="st28" d="M146.7,25c0,0,7.9,20.8-3.1,42.9s-26.8,16.1-25.3,44.9s2.2,58-10.2,69.1c-12.4,11.2-29.5,32.1-32.3,47.4
				s-1.6,24.5-1.6,24.5l-11-3.5L63.9,25H146.7z"/>
			<radialGradient id="SVGID_7_" cx="110.8312" cy="139.4" r="85.3769" gradientUnits="userSpaceOnUse">
				<stop  offset="0.2538" style="stop-color:#F39200"/>
				<stop  offset="1" style="stop-color:#E94E1B"/>
			</radialGradient>
			<path class="st29" d="M146.7,25L146.7,25c0,0,6.2,20.8-4.8,42.9s-26.8,16.1-25.3,44.9s2.2,58-10.2,69.1
				C94,193.1,76.9,214,74.1,229.3c-2.4,13.1-1.9,21.7-1.7,23.9l1.8,0.6c0,0-1.1-9.2,1.6-24.5c2.8-15.3,19.9-36.2,32.3-47.4
				s11.7-40.3,10.2-69.1s14.3-22.8,25.3-44.9C154.6,45.8,146.7,25,146.7,25z"/>
		</g>
		<g>
			<path class="st27" d="M96.7,369.6c0,1.6-0.9,2.8-2.1,2.8H18c-1.1,0-2.1-1.3-2.1-2.8l0,0c0-1.6,0.9-2.8,2.1-2.8h76.7
				C95.8,366.8,96.7,368,96.7,369.6L96.7,369.6z"/>
			<g>
				<path class="st30" d="M84.6,253.3c-0.3,0.3-0.6,0.6-0.9,0.9c-0.4-2.5-1-4.9-1.3-7c-1.4-7.4,2.1-8.3,7.3-16.2
					c5.2-8,0.4-7.2-1.8-17.1c-2.2-9.9-1.3-13-1.6-20c-0.3-7-6.1-7.3-8.5-3.8s-6.5,10.1-14.7,14.1c-8.2,4.1-7.1,4-6.1,11.1
					c0.8,6.2-2.8,9.1-10.6,14c-0.8-4.6-2.7-2.4-7-5.3c-4.6-3.1-5.4-4.9-8.1-7.8c-2.8-2.8-5.4,0-5.1,2.7s1,7.6-1,13.5
					s-1.5,5.3,1.5,7.9c2.3,2,2.3,4.5,1.2,9.1c-0.6-0.6-1.3-1.3-2.1-2c-3.2-2.8-5.8,0.5-5.3,3.5c0.5,2.9,1.7,8.2-0.1,14.8
					c-1.7,6.6-1.3,5.9,2.3,8.4c3.5,2.5,2.7,6.5,1.2,15.2s4.6,5.4,9.5,8.7c4.3,2.9,3,4.3,4.2,8.9h-1.8l9.1,47.5h25.4l5.7-30.5l0,0
					l1.4-7.7l0,0L79,307h-4.5c1-0.2,2.1-0.4,3-0.8c3.9-1.7,3.2-9.7,3.2-14.8c0-5.1,2.4-5.1,6.7-9.4c4.3-4.3,1.1-4.6,0.9-11.4
					s0.7-8.7,1.4-13.3C90.4,252.6,86.6,251.4,84.6,253.3z"/>
				<g>
					<g>
						<g>
							<path class="st31" d="M48.3,274.6c0,0-11.5-0.4-13.2-7s0.6-7.6-3.7-11.4c-4.3-3.8-10.1-1.1-8.1-9.5s3-12.3,0-15.1
								s-3.5-2.1-1.5-8.5c2-6.3,1.3-11.6,1-14.5s2.3-5.9,5.1-2.9c2.8,3.1,3.5,5,8.1,8.4s6.4,0.4,7.1,6.9c0.7,6.5-0.4,8.8,2.9,11.5
								c3.4,2.7,8.9,6.3,8.2,10.9c-0.7,4.6-4.2,8.5-2.1,11.6c2,3.1,4.5,3.8,2.7,8.7C53.1,268.8,48.3,274.6,48.3,274.6z"/>
							<g>
								<g>
									<defs>
										<path id="SVGID_8_" d="M48.3,274.6c0,0-11.5-0.4-13.2-7s0.6-7.6-3.7-11.4c-4.3-3.8-10.1-1.1-8.1-9.5s3-12.3,0-15.1
											s-3.5-2.1-1.5-8.5c2-6.3,1.3-11.6,1-14.5s2.3-5.9,5.1-2.9c2.8,3.1,3.5,5,8.1,8.4s6.4,0.4,7.1,6.9
											c0.7,6.5-0.4,8.8,2.9,11.5c3.4,2.7,8.9,6.3,8.2,10.9c-0.7,4.6-4.2,8.5-2.1,11.6c2,3.1,4.5,3.8,2.7,8.7
											C53.1,268.8,48.3,274.6,48.3,274.6z"/>
									</defs>
									<clipPath id="SVGID_9_">
										<use xlink:href="#SVGID_8_"  style="overflow:visible;"/>
									</clipPath>
									<g class="st32">
										<g>
											<g>
												<polygon class="st33" points="48.5,274.5 48.1,274.7 21,195.5 21.5,195.3 												"/>
											</g>
											<g>
												<polygon class="st33" points="31.7,226.6 13.1,218 13.3,217.5 31.9,226 												"/>
											</g>
											<g>
												<polygon class="st33" points="32,226.4 31.6,226.2 39.5,204.8 39.9,205.1 												"/>
											</g>
											<g>
												<polygon class="st33" points="39.3,248.6 14,239 14.1,238.4 39.4,248 												"/>
											</g>
											<g>
												<polygon class="st33" points="39.5,248.4 39.1,248.2 54.1,212.4 54.6,212.7 												"/>
											</g>
											<g>
												<polygon class="st33" points="45,265.3 18.6,259.8 18.6,259.2 45.1,264.7 												"/>
											</g>
											<g>
												<polygon class="st33" points="62,232 45.2,265.1 44.8,264.8 61.6,231.6 												"/>
											</g>
										</g>
									</g>
								</g>
							</g>
							<g>
								<g>
									<path class="st34" d="M29.8,238.5c0.5-0.9-0.7-1.8-1.1-0.9C28.2,238.5,29.3,239.5,29.8,238.5L29.8,238.5z"/>
								</g>
								<g>
									<path class="st34" d="M36.5,226.3c0.5-0.9-0.7-1.8-1.1-0.9C34.9,226.3,36.1,227.2,36.5,226.3L36.5,226.3z"/>
								</g>
								<g>
									<path class="st34" d="M39,237.5c0.5-0.9-0.7-1.8-1.1-0.9C37.4,237.5,38.5,238.4,39,237.5L39,237.5z"/>
								</g>
								<g>
									<path class="st34" d="M47.8,246.7c0.5-0.9-0.7-1.8-1.1-0.9C46.2,246.7,47.4,247.6,47.8,246.7L47.8,246.7z"/>
								</g>
								<g>
									<path class="st34" d="M36.7,255.4c0.5-0.9-0.7-1.8-1.1-0.9C35.1,255.5,36.3,256.4,36.7,255.4L36.7,255.4z"/>
								</g>
								<g>
									<path class="st34" d="M32.3,247.3c0.5-0.9-0.7-1.8-1.1-0.9C30.7,247.4,31.8,248.3,32.3,247.3L32.3,247.3z"/>
								</g>
								<g>
									<path class="st34" d="M26.9,249.7c0.5-0.9-0.7-1.8-1.1-0.9C25.3,249.7,26.4,250.6,26.9,249.7L26.9,249.7z"/>
								</g>
								<g>
									<path class="st34" d="M44.9,251.3c0.5-0.9-0.7-1.8-1.1-0.9C43.3,251.3,44.4,252.2,44.9,251.3L44.9,251.3z"/>
								</g>
								<g>
									<path class="st34" d="M41.5,259.9c0.6-1.2-0.9-2.4-1.5-1.2C39.4,260,40.9,261.2,41.5,259.9L41.5,259.9z"/>
								</g>
								<g>
									<path class="st34" d="M39.9,268.7C39.9,268.7,40,268.7,39.9,268.7c0.3-0.6,0.2-1.3-0.2-1.6c-0.4-0.3-1-0.2-1.2,0.3
										c0,0,0,0,0,0.1c-0.3,0.5-0.1,1.2,0.3,1.6C39.1,269.4,39.7,269.3,39.9,268.7L39.9,268.7z"/>
								</g>
								<g>
									<path class="st34" d="M50.4,266.3c0.6-1.2-0.9-2.4-1.5-1.2C48.3,266.3,49.8,267.5,50.4,266.3L50.4,266.3z"/>
								</g>
								<g>
									<path class="st34" d="M51.6,241c0.6-1.2-0.9-2.4-1.5-1.2S51,242.2,51.6,241L51.6,241z"/>
								</g>
								<g>
									<path class="st34" d="M39.6,230.6c0.6-1.2-0.9-2.4-1.5-1.2S39,231.9,39.6,230.6L39.6,230.6z"/>
								</g>
								<g>
									<path class="st34" d="M26.2,214.1c0.3-0.6-0.4-1.2-0.8-0.6C25.2,214.1,25.9,214.7,26.2,214.1L26.2,214.1z"/>
								</g>
								<g>
									<path class="st34" d="M26.8,231.3L26.8,231.3c0.5,0.4,1-0.5,0.5-0.9l0,0C26.8,230,26.3,230.9,26.8,231.3L26.8,231.3z"/>
								</g>
								<g>
									<path class="st34" d="M42.3,234c0.3-0.6-0.4-1.2-0.8-0.6C41.3,234,42,234.6,42.3,234L42.3,234z"/>
								</g>
								<g>
									<path class="st34" d="M33.2,240.5c0.3-0.6-0.4-1.2-0.8-0.6C32.1,240.5,32.9,241.1,33.2,240.5L33.2,240.5z"/>
								</g>
								<g>
									<path class="st34" d="M32.4,252.7c0.3-0.6-0.4-1.2-0.8-0.6C31.3,252.7,32.1,253.3,32.4,252.7L32.4,252.7z"/>
								</g>
								<g>
									<path class="st34" d="M45.9,255.9c0.3-0.6-0.4-1.2-0.8-0.6C44.9,255.9,45.6,256.5,45.9,255.9L45.9,255.9z"/>
								</g>
								<g>
									<path class="st34" d="M44.7,244.3c0.3-0.6-0.4-1.2-0.8-0.6C43.6,244.3,44.3,244.9,44.7,244.3L44.7,244.3z"/>
								</g>
								<g>
									<path class="st34" d="M50.8,260.9c0.3-0.6-0.4-1.2-0.8-0.6C49.8,260.9,50.5,261.5,50.8,260.9L50.8,260.9z"/>
								</g>
								<g>
									<path class="st34" d="M44.1,267.8c0.3-0.6-0.4-1.2-0.8-0.6C43,267.9,43.8,268.5,44.1,267.8L44.1,267.8z"/>
								</g>
							</g>
						</g>
						<g>
							<path class="st35" d="M42.6,290.6c0,0-12.9-17.3-8.7-27.3s7.8-7.8,6.3-18.4c-1.4-10.6-10.6-16-0.5-22.8s14.9-9.8,13.9-17.4
								c-0.9-7.6-2.1-7.6,6.1-11.9c8.2-4.4,12.3-11.5,14.7-15.2c2.4-3.8,8.2-3.4,8.5,4.1c0.3,7.6-0.6,10.9,1.6,21.5s7,9.8,1.8,18.4
								c-5.2,8.6-8.6,9.5-7.3,17.5c1.4,8,4.4,20.3-0.7,24.6C73.1,268,65.6,267.4,65,274c-0.6,6.6,1.7,11-5,14
								C53.5,291,42.6,290.6,42.6,290.6z"/>
							<g>
								<g>
									<defs>
										<path id="SVGID_11_" d="M42.6,290.6c0,0-12.9-17.3-8.7-27.3s7.8-7.8,6.3-18.4c-1.4-10.6-10.6-16-0.5-22.8
											s14.9-9.8,13.9-17.4c-0.9-7.6-2.1-7.6,6.1-11.9c8.2-4.4,12.3-11.5,14.7-15.2c2.4-3.8,8.2-3.4,8.5,4.1
											c0.3,7.6-0.6,10.9,1.6,21.5s7,9.8,1.8,18.4c-5.2,8.6-8.6,9.5-7.3,17.5c1.4,8,4.4,20.3-0.7,24.6
											C73.1,268,65.6,267.4,65,274c-0.6,6.6,1.7,11-5,14C53.5,291,42.6,290.6,42.6,290.6z"/>
									</defs>
									<clipPath id="SVGID_12_">
										<use xlink:href="#SVGID_11_"  style="overflow:visible;"/>
									</clipPath>
									<g class="st36">
										<g>
											<g>
												<polygon class="st34" points="42.9,290.8 42.2,290.5 84.6,159.8 85.3,160.1 												"/>
											</g>
											<g>
												<polygon class="st34" points="68.1,211.2 54.6,174 55.3,173.6 68.7,210.8 												"/>
											</g>
											<g>
												<polygon class="st34" points="68.5,211.4 68.3,210.5 97.2,197.6 97.5,198.4 												"/>
											</g>
											<g>
												<polygon class="st34" points="56.3,247.5 36.1,199.5 36.8,199 57,247.1 												"/>
											</g>
											<g>
												<polygon class="st34" points="56.7,247.7 56.5,246.8 107,227.7 107.2,228.6 												"/>
											</g>
											<g>
												<polygon class="st34" points="47.4,275.1 22.1,230.1 22.7,229.5 48,274.5 												"/>
											</g>
											<g>
												<polygon class="st34" points="97.9,261.7 47.8,275.3 47.6,274.3 97.7,260.8 												"/>
											</g>
										</g>
									</g>
								</g>
							</g>
							<g>
								<g>
									<path class="st34" d="M54.8,222.1c1.4-0.4,0.9-3.1-0.5-2.7C52.9,219.8,53.4,222.5,54.8,222.1L54.8,222.1z"/>
								</g>
								<g>
									<path class="st34" d="M73.8,217.9c1.4-0.4,0.9-3.1-0.5-2.7S72.4,218.3,73.8,217.9L73.8,217.9z"/>
								</g>
								<g>
									<path class="st34" d="M66.3,234.4c1.4-0.4,0.9-3.1-0.5-2.7S64.9,234.8,66.3,234.4L66.3,234.4z"/>
								</g>
								<g>
									<path class="st34" d="M67.9,257.8c1.4-0.4,0.9-3.1-0.5-2.7C66.1,255.5,66.5,258.2,67.9,257.8L67.9,257.8z"/>
								</g>
								<g>
									<path class="st34" d="M47,251.7c1.4-0.4,0.9-3.1-0.5-2.7C45.1,249.3,45.6,252.1,47,251.7L47,251.7z"/>
								</g>
								<g>
									<path class="st34" d="M49.4,235.9c1.4-0.4,0.9-3.1-0.5-2.7C47.5,233.5,48,236.2,49.4,235.9L49.4,235.9z"/>
								</g>
								<g>
									<path class="st34" d="M41,230.7c1.4-0.4,0.9-3.1-0.5-2.7C39.2,228.4,39.6,231.1,41,230.7L41,230.7z"/>
								</g>
								<g>
									<path class="st34" d="M60.2,258.9c1.4-0.4,0.9-3.1-0.5-2.7C58.3,256.5,58.8,259.2,60.2,258.9L60.2,258.9z"/>
								</g>
								<g>
									<path class="st34" d="M48.3,263.9c1.9-0.5,1.2-4.1-0.6-3.6C45.8,260.7,46.5,264.4,48.3,263.9L48.3,263.9z"/>
								</g>
								<g>
									<path class="st34" d="M38.4,271.7L38.4,271.7c0.9-0.2,1.4-1.2,1.2-2.2s-1-1.6-1.8-1.4h-0.1c-0.8,0.2-1.3,1.2-1.1,2.2
										C36.8,271.3,37.6,271.9,38.4,271.7L38.4,271.7z"/>
								</g>
								<g>
									<path class="st34" d="M52.7,284.2c1.9-0.5,1.2-4.1-0.6-3.6C50.2,281.1,50.8,284.7,52.7,284.2L52.7,284.2z"/>
								</g>
								<g>
									<path class="st34" d="M77.6,256.9c1.9-0.5,1.2-4.1-0.6-3.6C75.1,253.8,75.7,257.4,77.6,256.9L77.6,256.9z"/>
								</g>
								<g>
									<path class="st34" d="M73.3,227.3c1.9-0.5,1.2-4.1-0.6-3.6C70.9,224.2,71.5,227.8,73.3,227.3L73.3,227.3z"/>
								</g>
								<g>
									<path class="st34" d="M73.3,188.8c0.9-0.3,0.6-2.1-0.3-1.8C72,187.2,72.3,189,73.3,188.8L73.3,188.8z"/>
								</g>
								<g>
									<path class="st34" d="M58,209.4v0.1c0.2,1.2,1.6,0.8,1.4-0.4V209C59.2,207.9,57.8,208.2,58,209.4L58,209.4z"/>
								</g>
								<g>
									<path class="st34" d="M73.4,235.2c0.9-0.3,0.6-2.1-0.3-1.8C72.1,233.7,72.4,235.5,73.4,235.2L73.4,235.2z"/>
								</g>
								<g>
									<path class="st34" d="M56.8,229.3c0.9-0.3,0.6-2.1-0.3-1.8C55.6,227.8,55.9,229.6,56.8,229.3L56.8,229.3z"/>
								</g>
								<g>
									<path class="st34" d="M44.6,242.2c0.9-0.3,0.6-2.1-0.3-1.8C43.4,240.6,43.7,242.4,44.6,242.2L44.6,242.2z"/>
								</g>
								<g>
									<path class="st34" d="M57.2,265.7c0.9-0.3,0.6-2.1-0.3-1.8C55.9,264.1,56.3,265.9,57.2,265.7L57.2,265.7z"/>
								</g>
								<g>
									<path class="st34" d="M66.5,250.5c0.9-0.3,0.6-2.1-0.3-1.8C65.2,248.9,65.5,250.7,66.5,250.5L66.5,250.5z"/>
								</g>
								<g>
									<path class="st34" d="M58.2,278.6c0.9-0.3,0.6-2.1-0.3-1.8C56.9,277.1,57.3,278.9,58.2,278.6L58.2,278.6z"/>
								</g>
								<g>
									<path class="st34" d="M44,276.8c0.9-0.3,0.6-2.1-0.3-1.8C42.7,275.2,43,277,44,276.8L44,276.8z"/>
								</g>
							</g>
						</g>
						<g>
							<path class="st37" d="M49.7,312c0,0-12.6,0.9-14.9-6c-2.3-7,0.1-8.4-4.8-12c-5-3.6-11.1,0-9.5-9.4c1.5-9.4,2.4-13.8-1.2-16.4
								c-3.5-2.7-4-1.9-2.3-9.1c1.7-7.2,0.6-12.8,0.1-16s2.1-6.7,5.3-3.7s4.2,5,9.5,8.2c5.3,3.1,7-0.3,8.3,6.7
								c1.3,7,0.2,9.6,4.1,12.2c3.9,2.5,10.2,5.8,9.7,11s-3.9,9.8-1.5,12.9c2.5,3.2,5.2,3.6,3.6,9.2C54.5,305.1,49.7,312,49.7,312z"
								/>
							<g>
								<g>
									<defs>
										<path id="SVGID_13_" d="M49.7,312c0,0-12.6,0.9-14.9-6c-2.3-7,0.1-8.4-4.8-12c-5-3.6-11.1,0-9.5-9.4
											c1.5-9.4,2.4-13.8-1.2-16.4c-3.5-2.7-4-1.9-2.3-9.1c1.7-7.2,0.6-12.8,0.1-16s2.1-6.7,5.3-3.7s4.2,5,9.5,8.2
											c5.3,3.1,7-0.3,8.3,6.7c1.3,7,0.2,9.6,4.1,12.2c3.9,2.5,10.2,5.8,9.7,11s-3.9,9.8-1.5,12.9c2.5,3.2,5.2,3.6,3.6,9.2
											C54.5,305.1,49.7,312,49.7,312z"/>
									</defs>
									<clipPath id="SVGID_14_">
										<use xlink:href="#SVGID_13_"  style="overflow:visible;"/>
									</clipPath>
									<g class="st38">
										<g>
											<g>
												<polygon class="st39" points="49.9,311.8 49.5,312.1 14.1,228.9 14.6,228.6 												"/>
											</g>
											<g>
												<polygon class="st39" points="28.1,261.6 7.1,254.4 7.3,253.8 28.2,261 												"/>
											</g>
											<g>
												<polygon class="st39" points="28.4,261.4 27.9,261.2 35,236.9 35.4,237.2 												"/>
											</g>
											<g>
												<polygon class="st39" points="37.9,284.7 9.7,277.2 9.8,276.6 38,284.1 												"/>
											</g>
											<g>
												<polygon class="st39" points="38.2,284.5 37.8,284.2 51.5,243.5 51.9,243.8 												"/>
											</g>
											<g>
												<polygon class="st39" points="45.4,302.2 16.2,299.3 16.2,298.7 45.4,301.6 												"/>
											</g>
											<g>
												<polygon class="st39" points="61.5,263.9 45.7,302 45.2,301.7 61,263.6 												"/>
											</g>
										</g>
									</g>
								</g>
							</g>
							<g>
								<g>
									<path class="st39" d="M26.9,274.8c0.4-1.1-0.9-1.9-1.3-0.9C25.1,275,26.4,275.9,26.9,274.8L26.9,274.8z"/>
								</g>
								<g>
									<path class="st39" d="M33.3,260.7c0.4-1.1-0.9-1.9-1.3-0.9C31.5,260.9,32.9,261.8,33.3,260.7L33.3,260.7z"/>
								</g>
								<g>
									<path class="st39" d="M36.8,272.6c0.4-1.1-0.9-1.9-1.3-0.9C35.1,272.8,36.4,273.7,36.8,272.6L36.8,272.6z"/>
								</g>
								<g>
									<path class="st39" d="M47.1,281.6c0.4-1.1-0.9-1.9-1.3-0.9C45.4,281.8,46.7,282.6,47.1,281.6L47.1,281.6z"/>
								</g>
								<g>
									<path class="st39" d="M35.7,292.5c0.4-1.1-0.9-1.9-1.3-0.9C33.9,292.7,35.2,293.5,35.7,292.5L35.7,292.5z"/>
								</g>
								<g>
									<path class="st39" d="M30.2,284.1c0.4-1.1-0.9-1.9-1.3-0.9C28.5,284.3,29.8,285.2,30.2,284.1L30.2,284.1z"/>
								</g>
								<g>
									<path class="st39" d="M24.5,287.4c0.4-1.1-0.9-1.9-1.3-0.9C22.8,287.6,24.1,288.4,24.5,287.4L24.5,287.4z"/>
								</g>
								<g>
									<path class="st39" d="M44.2,287c0.4-1.1-0.9-1.9-1.3-0.9C42.5,287.2,43.8,288.1,44.2,287L44.2,287z"/>
								</g>
								<g>
									<path class="st39" d="M41.2,296.8c0.6-1.4-1.2-2.6-1.7-1.1C38.9,297.1,40.6,298.2,41.2,296.8L41.2,296.8z"/>
								</g>
								<g>
									<path class="st39" d="M40.2,306.6C40.2,306.6,40.2,306.5,40.2,306.6c0.3-0.7,0.1-1.4-0.4-1.7c-0.5-0.3-1.1-0.1-1.3,0.5
										c0,0,0,0,0,0.1c-0.2,0.6-0.1,1.4,0.4,1.7C39.3,307.4,39.9,307.2,40.2,306.6L40.2,306.6z"/>
								</g>
								<g>
									<path class="st39" d="M51.4,302.7c0.6-1.4-1.2-2.6-1.7-1.1C49.1,302.9,50.8,304.1,51.4,302.7L51.4,302.7z"/>
								</g>
								<g>
									<path class="st39" d="M50.9,275c0.6-1.4-1.2-2.6-1.7-1.1C48.5,275.2,50.3,276.4,50.9,275L50.9,275z"/>
								</g>
								<g>
									<path class="st39" d="M37,265.1c0.6-1.4-1.2-2.6-1.7-1.1C34.6,265.3,36.4,266.5,37,265.1L37,265.1z"/>
								</g>
								<g>
									<path class="st39" d="M21.2,248.6c0.3-0.7-0.6-1.3-0.9-0.6C20,248.8,20.9,249.3,21.2,248.6L21.2,248.6z"/>
								</g>
								<g>
									<path class="st39" d="M23.1,267.3L23.1,267.3c0.6,0.4,1.1-0.7,0.5-1.1c0,0,0,0-0.1,0C23,265.8,22.5,266.9,23.1,267.3
										L23.1,267.3z"/>
								</g>
								<g>
									<path class="st39" d="M40.2,268.4c0.3-0.7-0.6-1.3-0.9-0.6C39,268.5,39.9,269.1,40.2,268.4L40.2,268.4z"/>
								</g>
								<g>
									<path class="st39" d="M30.7,276.5c0.3-0.7-0.6-1.3-0.9-0.6C29.6,276.7,30.4,277.3,30.7,276.5L30.7,276.5z"/>
								</g>
								<g>
									<path class="st39" d="M30.8,289.9c0.3-0.7-0.6-1.3-0.9-0.6C29.6,290.1,30.5,290.7,30.8,289.9L30.8,289.9z"/>
								</g>
								<g>
									<path class="st39" d="M45.7,291.8c0.3-0.7-0.6-1.3-0.9-0.6C44.6,292,45.4,292.5,45.7,291.8L45.7,291.8z"/>
								</g>
								<g>
									<path class="st39" d="M43.5,279.4c0.3-0.7-0.6-1.3-0.9-0.6C42.3,279.5,43.2,280.1,43.5,279.4L43.5,279.4z"/>
								</g>
								<g>
									<path class="st39" d="M51.5,296.7c0.3-0.7-0.6-1.3-0.9-0.6C50.3,296.9,51.2,297.4,51.5,296.7L51.5,296.7z"/>
								</g>
								<g>
									<path class="st39" d="M44.6,305.1c0.3-0.7-0.6-1.3-0.9-0.6C43.5,305.2,44.3,305.8,44.6,305.1L44.6,305.1z"/>
								</g>
							</g>
						</g>
						<g>
							<path class="st35" d="M47.9,313.9c0,0-6.5-13.6-2.6-19.3c3.9-5.8,6-3.7,6.2-10.9c0.2-7.2-5.1-12.3,2.2-15s10.8-3.7,11.1-8.9
								c0.2-5.1-0.5-5.3,5.3-6.7s9.3-5.3,11.3-7.3s5.7-0.8,5.1,4.2s-1.6,7-1.4,14.4c0.2,7.3,3.5,7.6-0.9,12.3
								c-4.3,4.7-6.7,4.7-6.7,10.1c0,5.5,0.6,14-3.2,15.9c-3.9,1.9-8.7,0.2-9.8,4.4c-1.1,4.2-0.1,7.5-4.8,8.3
								C55,316.1,47.9,313.9,47.9,313.9z"/>
							<g>
								<g>
									<path id="SVGID_10_" class="st40" d="M47.9,313.9c0,0-6.5-13.6-2.6-19.3c3.9-5.8,6-3.7,6.2-10.9c0.2-7.2-5.1-12.3,2.2-15
										s10.8-3.7,11.1-8.9c0.2-5.1-0.5-5.3,5.3-6.7s9.3-5.3,11.3-7.3s5.7-0.8,5.1,4.2s-1.6,7-1.4,14.4c0.2,7.3,3.5,7.6-0.9,12.3
										c-4.3,4.7-6.7,4.7-6.7,10.1c0,5.5,0.6,14-3.2,15.9c-3.9,1.9-8.7,0.2-9.8,4.4c-1.1,4.2-0.1,7.5-4.8,8.3
										C55,316.1,47.9,313.9,47.9,313.9z"/>
								</g>
								<g>
									<defs>
										<path id="SVGID_15_" d="M47.9,313.9c0,0-6.5-13.6-2.6-19.3c3.9-5.8,6-3.7,6.2-10.9c0.2-7.2-5.1-12.3,2.2-15
											s10.8-3.7,11.1-8.9c0.2-5.1-0.5-5.3,5.3-6.7s9.3-5.3,11.3-7.3s5.7-0.8,5.1,4.2s-1.6,7-1.4,14.4c0.2,7.3,3.5,7.6-0.9,12.3
											c-4.3,4.7-6.7,4.7-6.7,10.1c0,5.5,0.6,14-3.2,15.9c-3.9,1.9-8.7,0.2-9.8,4.4c-1.1,4.2-0.1,7.5-4.8,8.3
											C55,316.1,47.9,313.9,47.9,313.9z"/>
									</defs>
									<clipPath id="SVGID_16_">
										<use xlink:href="#SVGID_15_"  style="overflow:visible;"/>
									</clipPath>
									<g class="st41">
										<g>
											<g>
												<polygon class="st33" points="48.1,314.1 47.7,313.7 90.1,235.8 90.5,236.2 												"/>
											</g>
											<g>
												<polygon class="st33" points="73.5,266.5 68.8,239.8 69.3,239.7 74,266.4 												"/>
											</g>
											<g>
												<polygon class="st33" points="73.7,266.7 73.7,266.1 94,262.8 94.1,263.4 												"/>
											</g>
											<g>
												<polygon class="st33" points="61.7,288.1 53.9,253.2 54.4,253 62.2,288 												"/>
											</g>
											<g>
												<polygon class="st33" points="62,288.4 61.9,287.7 97,284.2 97.1,284.8 												"/>
											</g>
											<g>
												<polygon class="st33" points="52.8,304.6 41.3,270.7 41.8,270.4 53.3,304.3 												"/>
											</g>
											<g>
												<rect x="53" y="304.1" class="st33" width="34.2" height="0.6"/>
											</g>
										</g>
									</g>
								</g>
							</g>
							<g>
								<g>
									<path class="st42" d="M63.6,271.3c1,0,1-1.9,0-1.9S62.6,271.3,63.6,271.3L63.6,271.3z"/>
								</g>
							</g>
							<g>
								<g>
									<path class="st42" d="M76.5,271.9c1,0,1-1.9,0-1.9S75.5,271.9,76.5,271.9L76.5,271.9z"/>
								</g>
							</g>
							<g>
								<g>
									<path class="st42" d="M69.7,281.3c1,0,1-1.9,0-1.9C68.7,279.5,68.7,281.3,69.7,281.3L69.7,281.3z"/>
								</g>
							</g>
							<g>
								<g>
									<path class="st42" d="M68.1,296.9c1,0,1-1.9,0-1.9C67.2,295.1,67.2,296.9,68.1,296.9L68.1,296.9z"/>
								</g>
							</g>
							<g>
								<g>
									<path class="st42" d="M55.2,289.2c1,0,1-1.9,0-1.9C54.2,287.4,54.2,289.2,55.2,289.2L55.2,289.2z"/>
								</g>
							</g>
							<g>
								<g>
									<path class="st42" d="M58.5,279.3c1,0,1-1.9,0-1.9C57.6,277.5,57.6,279.3,58.5,279.3L58.5,279.3z"/>
								</g>
							</g>
							<g>
								<g>
									<path class="st42" d="M53.6,274.5c1,0,1-1.9,0-1.9C52.7,272.6,52.7,274.5,53.6,274.5L53.6,274.5z"/>
								</g>
							</g>
							<g>
								<g>
									<path class="st42" d="M63,296.2c1,0,1-1.9,0-1.9C62,294.4,62,296.2,63,296.2L63,296.2z"/>
								</g>
							</g>
							<g>
								<g>
									<path class="st42" d="M54.7,297.4c1.3,0,1.3-2.5,0-2.5S53.4,297.4,54.7,297.4L54.7,297.4z"/>
								</g>
							</g>
							<g>
								<g>
									<path class="st42" d="M47.3,300.8L47.3,300.8c0.6,0,1-0.6,1-1.2c0-0.7-0.4-1.2-1-1.2c0,0,0,0-0.1,0c-0.5,0-1,0.6-1,1.2
										C46.3,300.2,46.7,300.8,47.3,300.8L47.3,300.8z"/>
								</g>
							</g>
							<g>
								<g>
									<path class="st42" d="M55.2,311.4c1.3,0,1.3-2.5,0-2.5C54,309,54,311.4,55.2,311.4L55.2,311.4z"/>
								</g>
							</g>
							<g>
								<g>
									<path class="st42" d="M74.5,298c1.3,0,1.3-2.5,0-2.5C73.3,295.6,73.3,298,74.5,298L74.5,298z"/>
								</g>
							</g>
							<g>
								<g>
									<path class="st42" d="M75.1,278c1.3,0,1.3-2.5,0-2.5C73.8,275.5,73.8,278,75.1,278L75.1,278z"/>
								</g>
							</g>
							<g>
								<g>
									<path class="st42" d="M79.4,252.8c0.6,0,0.6-1.2,0-1.2S78.8,252.8,79.4,252.8L79.4,252.8z"/>
								</g>
							</g>
							<g>
								<g>
									<path class="st42" d="M67.1,263.6L67.1,263.6c0,0.9,1,0.9,1,0.1v-0.1C68.1,262.8,67.1,262.8,67.1,263.6L67.1,263.6z"/>
								</g>
							</g>
							<g>
								<g>
									<path class="st42" d="M74.2,283.1c0.6,0,0.6-1.2,0-1.2S73.6,283.1,74.2,283.1L74.2,283.1z"/>
								</g>
							</g>
							<g>
								<g>
									<path class="st42" d="M64.1,276.3c0.6,0,0.6-1.2,0-1.2C63.5,275.1,63.5,276.3,64.1,276.3L64.1,276.3z"/>
								</g>
							</g>
							<g>
								<g>
									<path class="st42" d="M54.7,282.6c0.6,0,0.6-1.2,0-1.2C54,281.3,54,282.6,54.7,282.6L54.7,282.6z"/>
								</g>
							</g>
							<g>
								<g>
									<path class="st42" d="M60.3,300.1c0.6,0,0.6-1.2,0-1.2C59.6,298.9,59.6,300.1,60.3,300.1L60.3,300.1z"/>
								</g>
							</g>
							<g>
								<g>
									<path class="st42" d="M68,291.9c0.6,0,0.6-1.2,0-1.2C67.4,290.6,67.4,291.9,68,291.9L68,291.9z"/>
								</g>
							</g>
							<g>
								<g>
									<path class="st42" d="M59.5,308.8c0.6,0,0.6-1.2,0-1.2C58.8,307.6,58.8,308.8,59.5,308.8L59.5,308.8z"/>
								</g>
							</g>
							<g>
								<g>
									<path class="st42" d="M50.4,305.1c0.6,0,0.6-1.2,0-1.2C49.7,303.8,49.7,305.1,50.4,305.1L50.4,305.1z"/>
								</g>
							</g>
						</g>
					</g>
					<g>
						<polygon class="st43" points="32.4,303.5 75.8,303.5 66.9,354.7 41.5,354.7 						"/>
						<polygon class="st44" points="72.6,321.8 74.1,313.5 34.2,313.5 35.6,321.8 						"/>
						<g>
							<g>
								<defs>
									<polygon id="SVGID_17_" points="72.6,321.8 74.1,313.5 34.2,313.5 35.6,321.8 									"/>
								</defs>
								<clipPath id="SVGID_18_">
									<use xlink:href="#SVGID_17_"  style="overflow:visible;"/>
								</clipPath>
								<g class="st45">
									<polygon points="46.3,322.2 40.6,313.9 35.8,322 35.5,321.7 40.6,313.2 46.2,321.5 50.5,313.2 55.1,321.5 61.1,313.2 
										65.7,321.5 72.5,313.2 73.7,316.6 73.3,316.8 72.4,313.9 65.6,322.2 61.1,313.9 55.1,322.2 50.5,313.9 									"/>
								</g>
							</g>
						</g>
						<path class="st46" d="M41.1,303.5h-8.7l9.1,51.2h25.4l0.7-4.1C62.5,327.3,49.8,311.8,41.1,303.5z"/>
					</g>
				</g>
			</g>
		</g>
		<path class="st47" d="M388.5,23.4c0,0.9-0.6,1.7-1.2,1.7H56.1c-0.7,0-1.2-0.8-1.2-1.7l0,0c0-0.9,0.6-1.7,1.2-1.7h331.2
			C388,21.7,388.5,22.4,388.5,23.4L388.5,23.4z"/>
		<g>
			<g>
				<g>
					<polygon class="st48" points="237.5,176.8 232.1,204 262.6,204 257.7,173.8 					"/>
					<polygon class="st48" points="259.7,186 234.3,193.2 235.7,186 					"/>
				</g>
				<g>
					<path class="st49" d="M304.5,181.6c0,2.5-1.5,4.5-3.3,4.5H193.6c-1.8,0-3.3-2-3.3-4.5V71.7c0-2.5,1.5-4.5,3.3-4.5h107.7
						c1.8,0,3.3,2,3.3,4.5L304.5,181.6L304.5,181.6z"/>
					<rect x="193.6" y="72.5" class="st50" width="108.3" height="90.8"/>
					<path class="st51" d="M190.2,168.2v13.4c0,2.5,1.5,4.5,3.3,4.5h107.7c1.8,0,3.3-2,3.3-4.5v-13.4H190.2z"/>
					<polygon class="st52" points="241.1,72.5 206.9,163.3 209.3,163.3 243.4,72.5 					"/>
					<polygon class="st52" points="193.6,72.5 193.6,163.3 203,163.3 237.2,72.5 					"/>
				</g>
				<path class="st53" d="M251.3,176.5c0,2.7-1.6,4.9-3.6,4.9s-3.6-2.2-3.6-4.9s1.6-4.9,3.6-4.9S251.3,173.8,251.3,176.5z"/>
			</g>
		</g>
		<g>
			<g>
				<g>
					<g>
						<path class="st54" d="M142.9,184.5c0-0.3-2.9-32-7.2-37.2l0.4-0.5c4.4,5.4,7.3,36.3,7.4,37.6L142.9,184.5z"/>
					</g>
					<g>
						<path class="st55" d="M136.2,152c2,1.1,3,4.2,3,4.2s-2.3,1.4-4.3,0.3c-2-1.1-3-4.2-3-4.2S134.2,151,136.2,152z"/>
					</g>
					<g>
						<path class="st55" d="M138,162.7c2,1.1,3,4.2,3,4.2s-2.3,1.4-4.3,0.3c-2-1.1-3-4.2-3-4.2S136,161.7,138,162.7z"/>
					</g>
					<g>
						<path class="st55" d="M139.4,173.4c2,1.1,3,4.2,3,4.2s-2.3,1.4-4.3,0.3c-2-1.1-3-4.2-3-4.2S137.4,172.3,139.4,173.4z"/>
					</g>
					<g>
						<path class="st55" d="M138.5,149c-0.8,2.8,0.3,5.8,0.3,5.8s2.3-1.4,3-4.2c0.8-2.8-0.3-5.8-0.3-5.8S139.3,146.3,138.5,149z"/>
					</g>
					<g>
						<path class="st55" d="M133.7,146.4c0.9,1.4,2.6,1.5,2.6,1.5s0.1-2.2-0.9-3.6c-1-1.4-2.6-1.5-2.6-1.5S132.8,145,133.7,146.4z"
							/>
					</g>
					<g>
						<path class="st56" d="M135.6,145.2c-0.2,1.4,0.5,2.6,0.5,2.6s0.9-0.9,1.1-2.3c0.2-1.3-0.5-2.6-0.5-2.6
							S135.8,143.8,135.6,145.2z"/>
					</g>
					<g>
						<path class="st55" d="M142.1,159.5c-1.5,2.1-1.4,5.5-1.4,5.5s2.5-0.1,4-2.3c1.5-2.1,1.4-5.5,1.4-5.5S143.6,157.4,142.1,159.5z
							"/>
					</g>
					<g>
						<path class="st55" d="M143.5,168.3c-1.5,2.1-1.4,5.5-1.4,5.5s2.5-0.1,4-2.3c1.5-2.1,1.4-5.5,1.4-5.5S145,166.2,143.5,168.3z"
							/>
					</g>
				</g>
				<g>
					<path class="st55" d="M148.1,174.4c-1.1,1.6-1,4-1,4s1.8-0.1,2.9-1.6c1.1-1.6,1-4,1-4S149.1,172.9,148.1,174.4z"/>
				</g>
				<g>
					<path class="st55" d="M145.7,177c1.1,1.6,1,4,1,4s-1.8-0.1-2.9-1.6c-1.1-1.6-1-4-1-4S144.7,175.4,145.7,177z"/>
				</g>
				<g>
					<path class="st54" d="M147.1,184.6h-0.5c0-0.5,0.2-11.6,1.1-15.9l0.5,0.2C147.3,173.1,147.1,184.5,147.1,184.6z"/>
				</g>
				<g>
					<g>
						<path class="st57" d="M151.5,165.7c0.1-0.3,0.1-0.5,0.1-0.8c0-1.4-0.9-2.6-1.9-2.6s-1.7,1-1.9,2.2c-0.3-0.2-0.6-0.3-0.9-0.3
							c-1.1,0-1.9,1.2-1.9,2.6c0,1.2,0.6,2.2,1.5,2.5c0,0.2-0.1,0.4-0.1,0.6c0,1.4,0.9,2.6,1.9,2.6c0.9,0,1.6-0.8,1.8-2
							c0.1,0.1,0.3,0.1,0.5,0.1c1.1,0,1.9-1.2,1.9-2.6C152.5,167,152.1,166.1,151.5,165.7z M148.8,167.1L148.8,167.1
							c0,0.1,0,0.2,0,0.2l0,0C148.7,167.3,148.7,167.2,148.8,167.1z"/>
					</g>
					<g>
						<path class="st58" d="M149.4,167.1c0,0.5-0.3,0.9-0.7,0.9s-0.6-0.4-0.6-0.9s0.3-0.9,0.6-0.9
							C149.1,166.2,149.4,166.6,149.4,167.1z"/>
					</g>
				</g>
				<g>
					<path class="st55" d="M148.3,179.2c-1.3,1.1-1.7,3.5-1.7,3.5s1.8,0.5,3.1-0.6s1.7-3.5,1.7-3.5S149.6,178.1,148.3,179.2z"/>
				</g>
			</g>
			<g>
				<g>
					<g>
						<path class="st54" d="M141.2,183.8c0-0.2,1.7-19,4.3-22.1l-0.2-0.3c-2.6,3.2-4.3,21.6-4.4,22.4L141.2,183.8z"/>
					</g>
					<g>
						<path class="st55" d="M145.1,164.5c-1.2,0.6-1.8,2.5-1.8,2.5s1.4,0.8,2.6,0.2c1.2-0.6,1.8-2.5,1.8-2.5
							S146.4,163.8,145.1,164.5z"/>
					</g>
					<g>
						<path class="st55" d="M144,170.8c-1.2,0.6-1.8,2.5-1.8,2.5s1.4,0.8,2.6,0.2c1.2-0.6,1.8-2.5,1.8-2.5S145.2,170.2,144,170.8z"
							/>
					</g>
					<g>
						<path class="st55" d="M143.2,177.2c-1.2,0.6-1.8,2.5-1.8,2.5s1.4,0.8,2.6,0.2c1.2-0.6,1.8-2.5,1.8-2.5
							S144.4,176.5,143.2,177.2z"/>
					</g>
					<g>
						<path class="st55" d="M143.8,162.7c0.5,1.6-0.2,3.5-0.2,3.5s-1.4-0.8-1.8-2.5c-0.5-1.6,0.2-3.5,0.2-3.5S143.3,161,143.8,162.7
							z"/>
					</g>
					<g>
						<path class="st55" d="M146.6,161.1c-0.6,0.8-1.5,0.9-1.5,0.9s0-1.3,0.5-2.1c0.6-0.8,1.5-0.9,1.5-0.9S147.2,160.3,146.6,161.1z
							"/>
					</g>
					<g>
						<path class="st56" d="M145.5,160.4c0.1,0.8-0.3,1.6-0.3,1.6s-0.6-0.5-0.7-1.3c-0.1-0.8,0.3-1.6,0.3-1.6
							S145.4,159.6,145.5,160.4z"/>
					</g>
					<g>
						<path class="st55" d="M141.6,168.9c0.9,1.3,0.8,3.3,0.8,3.3s-1.5-0.1-2.4-1.3c-0.9-1.3-0.8-3.3-0.8-3.3
							S140.7,167.7,141.6,168.9z"/>
					</g>
					<g>
						<path class="st55" d="M140.8,174.2c0.9,1.3,0.8,3.3,0.8,3.3s-1.5-0.1-2.4-1.3c-0.9-1.3-0.8-3.3-0.8-3.3
							S139.9,172.9,140.8,174.2z"/>
					</g>
				</g>
				<g>
					<path class="st55" d="M138.1,177.8c0.6,0.9,0.6,2.4,0.6,2.4s-1.1,0-1.7-1c-0.6-0.9-0.6-2.4-0.6-2.4S137.4,176.9,138.1,177.8z"
						/>
				</g>
				<g>
					<path class="st55" d="M139.5,179.3c-0.6,0.9-0.6,2.4-0.6,2.4s1.1,0,1.7-1c0.6-0.9,0.6-2.4,0.6-2.4S140.1,178.4,139.5,179.3z"/>
				</g>
				<g>
					<path class="st54" d="M138.6,183.8h0.3c0-0.3-0.1-6.9-0.6-9.4l-0.3,0.1C138.5,177,138.6,183.8,138.6,183.8z"/>
				</g>
				<g>
					<g>
						<path class="st57" d="M135.4,174c0,0.9,0.5,1.5,1.1,1.5c0.1,0,0.2,0,0.3-0.1c0.1,0.7,0.6,1.2,1.1,1.2c0.6,0,1.1-0.7,1.1-1.5
							c0-0.1,0-0.3,0-0.4c0.5-0.2,0.9-0.8,0.9-1.5c0-0.8-0.5-1.5-1.1-1.5c-0.2,0-0.4,0.1-0.5,0.2c-0.1-0.7-0.5-1.3-1.1-1.3
							s-1.1,0.7-1.1,1.5c0,0.2,0,0.3,0.1,0.5C135.7,172.8,135.4,173.4,135.4,174z M137.7,173.6L137.7,173.6v-0.1l0,0
							C137.7,173.5,137.7,173.5,137.7,173.6z"/>
					</g>
					<g>
						<path class="st58" d="M137.3,173.4c0,0.3,0.2,0.5,0.4,0.5s0.4-0.2,0.4-0.5s-0.2-0.5-0.4-0.5S137.3,173.1,137.3,173.4z"/>
					</g>
				</g>
				<g>
					<path class="st55" d="M137.9,180.6c0.8,0.7,1,2.1,1,2.1s-1.1,0.3-1.8-0.4c-0.8-0.7-1-2.1-1-2.1S137.1,179.9,137.9,180.6z"/>
				</g>
			</g>
			<g>
				<g>
					<g>
						<path class="st54" d="M150.5,183.8c-0.3-1.2,0.2-7.4,1.2-11c0.9-4.1,2.4-5.7,3.2-9.8c-0.1-0.1-0.1-0.3-0.2-0.4
							c-0.8,4.1-2.2,5.7-3.2,9.8c-1,3.6-1.6,9.8-1.3,11.4C150.3,183.7,150.4,183.7,150.5,183.8z"/>
					</g>
					<g>
						<path class="st55" d="M154.6,166.4c-1,0.8-1.5,1.8-1.5,1.8c0-0.1,0.9,1.8,2,0.7c1.2-1.1,2-4.4,2-4.3
							C157,164.8,155.6,165.8,154.6,166.4z"/>
					</g>
					<g>
						<path class="st55" d="M153.2,171.7c-1-0.4-1.6,0.5-1.6,0.5c0-0.1,0.8,1.6,1.9,1.9c1.1,0.2,2-1.9,2-1.9
							C155.5,172.2,154.1,172.1,153.2,171.7z"/>
					</g>
					<g>
						<path class="st55" d="M152.1,176c-1-0.2-1.5,1.9-1.5,1.9s1.1,1.1,2.2,1c1-0.1,1.7-1.4,1.7-1.4
							C154.4,177.6,153,176.3,152.1,176z"/>
					</g>
					<g>
						<path class="st55" d="M153.5,164.1c0.4,2.1-0.2,3.6-0.2,3.5c0,0-0.9-1.5-1.5-3.3c-0.5-1.7-0.2-3.7-0.2-3.8
							C151.6,160.6,153.1,162,153.5,164.1z"/>
					</g>
					<g>
						<path class="st55" d="M156,161.9c-0.6,1.4-1.4,1.6-1.4,1.6s-0.1-1.7,0.4-3.1c0.5-1.3,1.5-1.4,1.5-1.4S156.5,160.5,156,161.9z"
							/>
					</g>
					<g>
						<path class="st56" d="M154.9,161.2c0.1,1.2-0.2,2.2-0.2,2.2s-0.5-0.7-0.6-1.9c-0.2-1.2,0.1-2.4,0.1-2.4S154.8,160,154.9,161.2
							z"/>
					</g>
					<g>
						<path class="st55" d="M151.5,168.6c0.6,1.5,0.3,3,0.3,3s-1-1.1-1.9-1.9c-0.9-0.8-1-2.6-0.9-2.6
							C149.1,166.9,151,166.9,151.5,168.6z"/>
					</g>
					<g>
						<path class="st55" d="M150.4,172.4c0.6,1.2,0.4,3.2,0.4,3.2s-1.1-0.4-2-0.6c-1-0.2-1-2-1-2.1
							C147.9,172.6,149.8,170.9,150.4,172.4z"/>
					</g>
				</g>
				<g>
					<path class="st55" d="M147.4,177.8c0.6,0.9,0.6,2.4,0.6,2.4s-1.1,0-1.7-1c-0.6-0.9-0.6-2.4-0.6-2.4S146.8,176.9,147.4,177.8z"
						/>
				</g>
				<g>
					<path class="st55" d="M148.8,179.3c-0.6,0.9-0.6,2.4-0.6,2.4s1.1,0,1.7-1c0.6-0.9,0.6-2.4,0.6-2.4S149.5,178.4,148.8,179.3z"/>
				</g>
				<g>
					<path class="st54" d="M148,183.8h0.3c0-0.3-0.1-6.9-0.6-9.4l-0.3,0.1C147.9,177,148,183.8,148,183.8z"/>
				</g>
				<g>
					<g>
						<path class="st57" d="M144.8,174c0,0.9,0.5,1.5,1.1,1.5c0.1,0,0.2,0,0.3-0.1c0.1,0.7,0.6,1.2,1.1,1.2c0.6,0,1.1-0.7,1.1-1.5
							c0-0.1,0-0.3,0-0.4c0.5-0.2,0.9-0.8,0.9-1.5c0-0.8-0.5-1.5-1.1-1.5c-0.2,0-0.4,0.1-0.5,0.2c-0.1-0.7-0.5-1.3-1.1-1.3
							s-1.1,0.7-1.1,1.5c0,0.2,0,0.3,0.1,0.5C145.1,172.8,144.8,173.4,144.8,174z M147.1,173.6C147.1,173.6,147,173.6,147.1,173.6
							v-0.1l0,0C147,173.5,147,173.5,147.1,173.6z"/>
					</g>
					<g>
						<path class="st58" d="M146.6,173.4c0,0.3,0.2,0.5,0.4,0.5s0.4-0.2,0.4-0.5s-0.2-0.5-0.4-0.5S146.6,173.1,146.6,173.4z"/>
					</g>
				</g>
				<g>
					<path class="st55" d="M147.3,180.6c0.8,0.7,1,2.1,1,2.1s-1,0.3-1.8-0.4s-1-2.1-1-2.1S146.5,179.9,147.3,180.6z"/>
				</g>
			</g>
			<g>
				<rect x="135.1" y="182.5" class="st59" width="14.4" height="17.1"/>
			</g>
			<g>
				<rect x="134.8" y="182.5" class="st60" width="16.5" height="4"/>
			</g>
		</g>
		<g>
			<g>
				<path class="st61" d="M340.9,173.1h23.7c-1.1,1.3-1.8,3.2-1.8,5.4s0.7,4.1,1.8,5.4h-23.7c-0.3,0-0.6,0.4-0.6,0.8
					c0,0.4,0.3,0.8,0.6,0.8H368l0,0c2.8-0.1,5-3.2,5-7s-2.2-6.9-5-7l0,0h-27.1c-0.3,0-0.6,0.4-0.6,0.8
					C340.4,172.7,340.6,173.1,340.9,173.1z"/>
				<path class="st62" d="M368,183.8L368,183.8c2.1-0.1,3.8-2.5,3.8-5.4s-1.7-5.2-3.8-5.3l0,0h-26.2v10.7H368z"/>
			</g>
			<g>
				<path class="st63" d="M336.5,159.1h23.7c-1.1,1.3-1.8,3.2-1.8,5.4s0.7,4.1,1.8,5.4h-23.7c-0.3,0-0.6,0.4-0.6,0.8
					c0,0.5,0.2,0.8,0.6,0.8h27.1l0,0c2.8-0.1,5-3.2,5-7s-2.2-6.9-5-7l0,0h-27.1c-0.3,0-0.6,0.4-0.6,0.8
					C335.9,158.7,336.2,159.1,336.5,159.1z"/>
				<path class="st62" d="M363.6,169.8L363.6,169.8c2.1-0.1,3.8-2.5,3.8-5.4s-1.7-5.2-3.8-5.3l0,0h-26.2v10.7H363.6z"/>
			</g>
			<g>
				<rect x="331.4" y="185.5" class="st64" width="46.6" height="14.7"/>
				<path class="st65" d="M338.3,192.9c0,1.4-0.8,2.5-1.8,2.5s-1.8-1.1-1.8-2.5s0.8-2.5,1.8-2.5S338.3,191.5,338.3,192.9z"/>
				<rect x="340.3" y="190.4" class="st65" width="28.3" height="5"/>
				<rect x="370.7" y="190.4" class="st65" width="1.5" height="5"/>
				<rect x="373.1" y="190.4" class="st65" width="1.5" height="5"/>
			</g>
		</g>
		<g>
			<g>
				<g>
					<rect x="157.9" y="177.5" class="st66" width="29.3" height="7.5"/>
				</g>
				<g>
					<rect x="159.8" y="177.5" class="st67" width="1.3" height="7.5"/>
				</g>
				<g>
					<rect x="161.7" y="177.5" class="st67" width="1.3" height="7.5"/>
				</g>
				<g>
					<rect x="182.1" y="177.5" class="st67" width="1.3" height="7.5"/>
				</g>
				<g>
					<rect x="184" y="177.5" class="st67" width="1.3" height="7.5"/>
				</g>
			</g>
			<g>
				<g>
					<rect x="157.9" y="194" class="st68" width="29.3" height="5.2"/>
				</g>
				<g>
					<rect x="157.9" y="194" class="st66" width="29.3" height="5.2"/>
				</g>
				<g>
					<rect x="184" y="194" class="st67" width="1.3" height="5.2"/>
				</g>
				<g>
					<rect x="182.6" y="194" class="st67" width="0.8" height="5.2"/>
				</g>
			</g>
			<g>
				<rect x="151.5" y="185.7" class="st67" width="29.3" height="7.5"/>
			</g>
			<g>
				<g>
					<g>
						<rect x="152.3" y="186.1" class="st69" width="28.6" height="0.4"/>
					</g>
				</g>
				<g>
					<g>
						<rect x="152.3" y="186.9" class="st69" width="28.6" height="0.4"/>
					</g>
				</g>
				<g>
					<g>
						<rect x="152.3" y="187.7" class="st69" width="28.6" height="0.4"/>
					</g>
				</g>
				<g>
					<g>
						<rect x="152.3" y="188.5" class="st69" width="28.6" height="0.4"/>
					</g>
				</g>
				<g>
					<g>
						<rect x="152.3" y="189.3" class="st69" width="28.6" height="0.4"/>
					</g>
				</g>
				<g>
					<g>
						<rect x="152.3" y="190.2" class="st69" width="28.6" height="0.4"/>
					</g>
				</g>
				<g>
					<g>
						<rect x="152.3" y="191" class="st69" width="28.6" height="0.4"/>
					</g>
				</g>
				<g>
					<g>
						<rect x="152.3" y="191.8" class="st69" width="28.6" height="0.4"/>
					</g>
				</g>
				<g>
					<g>
						<rect x="152.3" y="192.6" class="st69" width="28.6" height="0.4"/>
					</g>
				</g>
			</g>
			<g>
				<g>
					<g>
						<polygon class="st68" points="181.5,192.5 152.9,192.5 152.9,186.5 181.5,186.5 181.5,185 150.9,185 150.9,194 181.5,194 
													"/>
					</g>
				</g>
				<g>
					<path class="st68" d="M182.1,185.7c0,0.4-0.3,0.7-0.6,0.7s-0.6-0.3-0.6-0.7s0.3-0.7,0.6-0.7S182.1,185.3,182.1,185.7z"/>
				</g>
				<g>
					<path class="st68" d="M182.1,193.3c0,0.4-0.3,0.7-0.6,0.7s-0.6-0.3-0.6-0.7s0.3-0.7,0.6-0.7
						C181.8,192.5,182.1,192.9,182.1,193.3z"/>
				</g>
			</g>
			<g>
				<polygon class="st70" points="160.1,189 160.1,197.3 161.7,195.1 163.3,195.6 163.3,189 				"/>
			</g>
		</g>
		<g>
			<g>
				<g>
					<g>
						<polygon class="st2" points="161.3,341.5 158,341.9 150.5,204.4 153.8,204.1 						"/>
						<polygon class="st2" points="136.5,341.3 139.8,341.7 146.2,204.4 142.9,204 						"/>
						<rect x="140" y="300.8" class="st2" width="16.9" height="3.6"/>
					</g>
					<g>
						<g>
							<polygon class="st71" points="154.5,216.3 153.8,204.1 150.5,204.4 151.2,216.3 							"/>
							<polygon class="st71" points="145.7,216.3 146.2,204.4 142.9,204 142.4,216.3 							"/>
						</g>
					</g>
				</g>
				<g>
					<g>
						<polygon class="st72" points="367.4,341.5 364.1,341.9 356.6,204.4 359.9,204.1 						"/>
						<polygon class="st72" points="342.6,341.3 345.9,341.7 352.3,204.4 349,204 						"/>
						<rect x="346.1" y="300.8" class="st72" width="16.9" height="3.6"/>
					</g>
					<g>
						<g>
							<polygon class="st71" points="360.6,216.3 359.9,204.1 356.6,204.4 357.3,216.3 							"/>
							<polygon class="st71" points="351.8,216.3 352.3,204.4 349,204 348.4,216.3 							"/>
						</g>
					</g>
				</g>
			</g>
			<path class="st40" d="M121.3,198.6c0.4,6.1,4.1,10.8,8.7,10.8h243.9c4.6,0,8.3-4.8,8.7-10.8H121.3z"/>
		</g>
		<g>
			<path class="st73" d="M251,199.7l6.1,2c0.6-4.2,1-8.3,1.8-12.4c0.2-1.2,0.5-2.4,0.7-3.6l-5.5-2c-3.3-1.2-6.6,1.5-7.5,5.9
				C245.8,194,247.7,198.5,251,199.7z"/>
			<path class="st74" d="M316.3,320.3h-17.5c-5.9,0-10.6,6.5-10.6,14.4c0,0.1,0,0.2,0,0.3h28.1V320.3z"/>
			<g>
				<path class="st73" d="M338.2,112.2c-1.8,11-9.8,17.9-17.9,15.5l0,0c-8.1-2.4-13.2-13.3-11.5-24.3l2.8-17.4
					c1.8-11,9.8-17.9,17.9-15.5l0,0c8.1,2.4,13.2,13.3,11.5,24.3L338.2,112.2z"/>
				<path class="st73" d="M339,140.8c0,7.2-4.3,13.1-9.7,13.1l0,0c-5.3,0-9.7-5.9-9.7-13.1v-38c0-7.2,4.3-13.1,9.7-13.1l0,0
					c5.3,0,9.7,5.9,9.7,13.1V140.8z"/>
				<g>
					<g>
						<path class="st75" d="M343.8,82.2c-2.1,7.9-8,12.1-13.3,9.6l-13.1-6.4c-5.3-2.6-7.8-11-5.7-18.9l0,0c2.1-7.9,8-12.1,13.3-9.6
							l13.1,6.4C343.3,65.9,345.9,74.3,343.8,82.2L343.8,82.2z"/>
						<path class="st75" d="M316.9,79l-3.6,10.1c0,0,3.2,4.3,2.3,6.9c-0.9,2.6-3.8,13.5-3.8,13.5l1.4,1.4c0,0,5-13.1,7.4-13
							c2.3,0.1,3.4,2.4,3.4,6.8l1.3-18.5l-7.8-7.2C317.5,79,316.9,79,316.9,79z"/>
						<path class="st75" d="M342.9,100.3c0,7.3-4.4,13.2-9.8,13.2l0,0c-5.4,0-9.8-5.9-9.8-13.2v-17c0-7.3,4.4-13.2,9.8-13.2l0,0
							c5.4,0,11.3-1.4,11.3,5.9L342.9,100.3z"/>
					</g>
				</g>
			</g>
			<path class="st76" d="M347.7,241.4c-0.6,0-26.2-0.6-40.2-1c-4.9-0.1-8.8,5.2-8.8,11.8v75.3h17.4v-66h31.6V241.4z"/>
			<path class="st76" d="M320,241.4c-0.6,0-26.2-0.6-40.2-1c-4.9-0.1-8.8,5.2-8.8,11.8v75.3h17.4v-66H320V241.4z"/>
			<g>
				<g>
					<path class="st77" d="M329.4,132.2c12.7-0.2,23.2,15.6,23.4,35.4l-2.7,76.9l-46.1,0.8l2.7-76.9
						C306.5,148.6,316.7,132.4,329.4,132.2z"/>
				</g>
			</g>
			<path class="st78" d="M317.1,138l2.3-3.9l16.7-6c2.4-0.6,4.6,1.5,5,4.7l0.6,4.6L317.1,138z"/>
			<path class="st79" d="M304,238.7v8.4c0,9.4,5.7,17.1,12.8,17.1h20.6c7.1,0,12.8-7.6,12.8-17.1v-8.4L304,238.7L304,238.7z"/>
			<g>
				<g>
					<g>
						<rect x="315.7" y="266.8" class="st43" width="7.2" height="57.7"/>
						<path class="st80" d="M322.9,270.2v13l-7.2,7.7v-20.3C317.5,270.5,321,270.3,322.9,270.2z"/>
					</g>
					<g>
						<g>
							<path class="st81" d="M354,343.7h-4.5c0-7.3-4.4-13.3-9.8-13.3h-41.2c-5.4,0-9.8,5.9-9.8,13.3h-4.5
								c0-10.7,6.4-19.4,14.3-19.4h41.2C347.6,324.3,354,333,354,343.7z"/>
						</g>
						<rect x="314" y="315.2" class="st81" width="10.5" height="9.3"/>
					</g>
					<g>
						<path class="st82" d="M290.1,349.6c0,2.8-1.7,5.1-3.7,5.1c-2.1,0-3.7-2.3-3.7-5.1c0-2.8,1.7-5.1,3.7-5.1
							C288.4,344.6,290.1,346.8,290.1,349.6z"/>
						<path class="st83" d="M291.7,349.2h-10.3v-1.3c0-3.8,2.3-7,5.1-7l0,0c2.8,0,5.1,3.1,5.1,7L291.7,349.2L291.7,349.2z"/>
						<path class="st82" d="M355.7,349.6c0,2.8-1.7,5.1-3.7,5.1c-2.1,0-3.7-2.3-3.7-5.1c0-2.8,1.7-5.1,3.7-5.1
							C354.1,344.6,355.7,346.8,355.7,349.6z"/>
						<path class="st83" d="M357.4,349.2h-10.3v-1.3c0-3.8,2.3-7,5.1-7l0,0c2.8,0,5.1,3.1,5.1,7L357.4,349.2L357.4,349.2z"/>
					</g>
					<rect x="316.5" y="326.2" class="st81" width="6" height="18.4"/>
					<g>
						<path class="st82" d="M323.3,349.6c0,2.8-1.7,5.1-3.7,5.1c-2.1,0-3.7-2.3-3.7-5.1c0-2.8,1.7-5.1,3.7-5.1
							C321.6,344.6,323.3,346.8,323.3,349.6z"/>
						<path class="st83" d="M325,349.2h-10.3v-1.3c0-3.8,2.3-7,5.1-7l0,0c2.8,0,5.1,3.1,5.1,7L325,349.2L325,349.2z"/>
					</g>
				</g>
				<path class="st51" d="M327,163.7h42.7c4.8,0,8.5,5.9,7.8,12.4l-10.3,89.5c-0.6,5.2-3.9,9-7.8,9h-90.3c-4.4,0-7.9-4.8-7.9-10.7
					l0,0c0-5.9,3.5-10.7,7.9-10.7h33.1c3.8,0,7.1-3.7,7.8-8.9l9.2-71.8C319.9,167.4,323.2,163.7,327,163.7z"/>
				<path class="st43" d="M369.7,163.7h-42.2c4.8,0,8.5,5.9,7.8,12.4L325,265.5c-0.6,5.2-3.9,9-7.8,9h42.2c3.9,0,7.2-3.8,7.8-9
					l10.3-89.5C378.3,169.5,374.6,163.7,369.7,163.7z"/>
			</g>
			<path class="st84" d="M288.4,320.3H271c-5.9,0-10.6,6.5-10.6,14.4c0,0.1,0,0.2,0,0.3h28.1v-14.7H288.4z"/>
			<path class="st85" d="M298.3,207.4c-1.8,3.9-5.5,5.1-8.4,2.8l0,0c-2.9-2.4-3.8-7.5-2-11.4l23.2-51.7c1.8-3.9,5.5-5.1,8.4-2.8l0,0
				c2.9,2.4,3.8,7.5,2,11.4L298.3,207.4z"/>
			<path class="st86" d="M294.1,195l-35.1-9.8c-1.3,5.3-2.6,10.5-3.9,15.8l36.6,10.2c3.3,0.9,6.5-2,7.2-6.4
				C299.5,200.3,297.4,196,294.1,195z"/>
		</g>
		<g>
			<path class="st27" d="M247.8,326.2c0,1.2-0.7,2.3-1.7,2.3h-61.4c-0.9,0-1.7-1-1.7-2.3l0,0c0-1.2,0.7-2.3,1.7-2.3h61.4
				C247.1,324,247.8,325,247.8,326.2L247.8,326.2z"/>
			<g>
				<polygon class="st87" points="224.4,271.7 219,271.1 217.1,281.4 222.6,284.6 227.9,277.3 				"/>
				<polygon class="st87" points="216.7,270.7 211.3,270.1 209.4,280.4 214.9,283.6 220.2,276.2 				"/>
				<polygon class="st88" points="213.6,278.5 208.3,277.8 206.4,288.2 211.9,291.4 217.1,284 				"/>
				<polygon class="st89" points="223.5,278.5 218.2,277.8 216.3,288.2 221.8,291.4 227,284 				"/>
				<polygon class="st90" points="219,274.5 213.7,273.9 211.8,284.2 217.3,287.4 222.5,280.1 				"/>
				<rect x="203.5" y="293.7" class="st91" width="24.4" height="30.8"/>
				<rect x="202.2" y="284.4" class="st92" width="26.9" height="9.3"/>
				<rect x="203.5" y="293.7" class="st93" width="24.4" height="2.6"/>
				<polygon class="st91" points="196.4,311.6 191.1,311 189.2,321.3 194.7,324.5 199.9,317.1 				"/>
			</g>
		</g>
	</g>
	<g>
		<g>
			<polygon class="st94" points="285.3,145.5 232.9,140 229.7,87.4 228.5,116.4 227.2,145.5 256.3,145.5 			"/>
			<polygon class="st94" points="215.8,135.6 253.1,95.6 290.3,135.4 271.7,110.8 253.1,86.3 234.5,111 			"/>
		</g>
		<g>
			<g>
				<g>
					<radialGradient id="SVGID_19_" cx="249.2071" cy="115.5046" r="19.189" gradientUnits="userSpaceOnUse">
						<stop  offset="0.2538" style="stop-color:#F39200"/>
						<stop  offset="1" style="stop-color:#E94E1B"/>
					</radialGradient>
					<path class="st95" d="M235.4,92.1h5.8v41.6H263v5.2h-27.6V92.1z"/>
				</g>
			</g>
			<g>
				<radialGradient id="SVGID_20_" cx="253.0093" cy="125.8873" r="22.9123" gradientUnits="userSpaceOnUse">
					<stop  offset="0.2538" style="stop-color:#F39200"/>
					<stop  offset="1" style="stop-color:#E94E1B"/>
				</radialGradient>
				<path class="st96" d="M264.9,138.9h-23.7l-4.1,10.4h-6.4l18.8-46.8h7.2l18.9,46.8H269L264.9,138.9z M242.8,133.7h20.3l-10.1-26
					L242.8,133.7z"/>
			</g>
		</g>
	</g>
</g>
</svg>
