<?xml version="1.0" encoding="utf-8"?>
<!-- Generator: Adobe Illustrator 24.1.0, SVG Export Plug-In . SVG Version: 6.00 Build 0)  -->
<svg version="1.1" id="Layer_1" xmlns="http://www.w3.org/2000/svg" xmlns:xlink="http://www.w3.org/1999/xlink" x="0px" y="0px"
	 viewBox="0 0 800 800" style="enable-background:new 0 0 800 800;" xml:space="preserve">
<style type="text/css">
	.st0{fill:#E6E6E6;}
	.st1{fill:url(#SVGID_1_);}
	.st2{fill:url(#SVGID_2_);}
</style>
<g>
	<g>
		<polygon class="st0" points="743.2,695.7 183,637.7 148.8,75.3 135.4,385.5 122.1,695.8 432.6,695.8 		"/>
		<polygon class="st0" points="-0.4,590.7 398.9,162.2 796.1,587.7 597.8,325.6 399.4,63.5 199.5,327.1 		"/>
	</g>
	<g>
		<g>
			<g>
				<radialGradient id="SVGID_1_" cx="357.2383" cy="375.4567" r="205.1715" gradientUnits="userSpaceOnUse">
					<stop  offset="0.2538" style="stop-color:#F39200"/>
					<stop  offset="1" style="stop-color:#E94E1B"/>
				</radialGradient>
				<path class="st1" d="M209.9,125.5h62.2V570h232.4v55.5H209.9V125.5z"/>
			</g>
		</g>
		<g>
			<radialGradient id="SVGID_2_" cx="397.8918" cy="486.4711" r="244.9825" gradientUnits="userSpaceOnUse">
				<stop  offset="0.2538" style="stop-color:#F39200"/>
				<stop  offset="1" style="stop-color:#E94E1B"/>
			</radialGradient>
			<path class="st2" d="M524.6,625.5H271.2L227,736.5h-69l200.9-500h77.2l201.6,500h-69L524.6,625.5z M289.2,570.1h216.6L397.9,292
				L289.2,570.1z"/>
		</g>
	</g>
</g>
</svg>
